<svg width="26" height="24" viewBox="0 0 26 24" fill="none" xmlns="http://www.w3.org/2000/svg">
  <path
    d="M2.32202 1.52431C6.77365 -1.10272 21.1285 0.745928 21.1285 0.745928L24.8704 3.14593L25.9994 8.95133C25.9994 8.95133 25.8718 13.3746 24.8704 15.9567C21.5938 17.6688 18.5801 17.6757 13.5801 18.2919C12.1228 20.1405 14.2898 23.7405 14.2898 23.7405C14.2898 23.7405 10.3221 22.573 8.48337 18.1297C6.03175 17.773 3.74143 18.5513 1.80589 17.254C0.225302 15.0811 0.128604 13.8162 0.580084 9.85944C0.609784 6.53342 -0.290867 5.2216 2.32202 1.52431Z"
    fill="#ECECEC" />
  <path fill-rule="evenodd" clip-rule="evenodd"
    d="M8.27315 0.0188727C6.28255 0.0555348 4.7495 0.25006 3.7774 0.592759C2.21584 1.1432 0.894227 2.76016 0.532245 4.56415C0.449707 4.96927 0.348826 5.87495 0.296804 6.66174C0.276294 6.99639 0.240445 7.50498 0.219268 7.79057C0.0797043 9.64895 0 10.9832 0 11.4507C0 12.4394 0.0723664 13.9506 0.144733 14.4408C0.247782 15.1491 0.44954 15.5983 0.845048 15.9932C1.01613 16.1619 1.07232 16.2369 1.12718 16.3697C1.41881 17.0912 1.79382 17.5037 2.46865 17.8412C2.7998 18.0099 3.02724 18.0798 3.54981 18.1758C4.43654 18.3366 4.68216 18.3528 6.67792 18.3476C8.0377 18.3446 8.4594 18.3528 8.46674 18.3756C8.47191 18.394 8.5136 18.5341 8.56029 18.6926C8.77455 19.4324 9.04051 20.0321 9.40535 20.5877C9.87106 21.301 10.1189 21.5528 11.0004 22.1965C11.2277 22.363 11.5435 22.5994 11.6986 22.7183C12.2103 23.1182 13.3142 23.7179 13.8777 23.9072C14.2272 24.0217 14.3873 24.0291 14.4882 23.9358C14.5943 23.8376 14.5759 23.7619 14.4057 23.5645C14.1754 23.2995 14.0227 23.0713 13.8859 22.7755C13.6323 22.2383 13.5679 22.0386 13.4956 21.5996C13.3588 20.7534 13.3275 19.8477 13.418 19.3127C13.4699 19.0169 13.5833 18.6302 13.6768 18.4459L13.7228 18.3526L14.3281 18.321C14.6586 18.3026 15.1294 18.2902 15.3699 18.2902C15.7756 18.2902 16.8123 18.2483 18.0068 18.1859C18.6896 18.1499 19.5224 18.064 19.9207 17.9892C20.1065 17.9554 20.5406 17.8747 20.89 17.81C21.9888 17.6045 22.9063 17.3505 23.4107 17.1113C23.8786 16.8881 24.1579 16.6886 24.6622 16.2056C25.2822 15.6162 25.4613 15.2867 25.6315 14.4353C25.7039 14.0742 25.8099 12.9761 25.8538 12.138C25.8691 11.8606 25.9007 11.393 25.921 11.0994C26.0087 9.87447 26.027 8.10931 25.9575 7.38782C25.9443 7.23733 25.913 6.91289 25.8925 6.66347C25.8456 6.14684 25.6907 5.28003 25.5408 4.69059C25.4166 4.19521 25.1658 3.55893 24.98 3.26309C24.6182 2.68188 24.3543 2.45568 23.4623 1.95512C23.2342 1.82823 23.0098 1.69313 22.9631 1.65647C22.5648 1.33722 21.9988 1.0384 21.4586 0.85943C20.843 0.659712 20.3986 0.579023 19.2611 0.470378C18.8831 0.433716 18.3713 0.379309 18.1236 0.350681C15.7988 0.0834989 15.1344 0.0468397 11.7505 0.0182118C10.4134 0.00565628 9.30218 -0.00237925 9.28097 0.000633966C9.26046 0.000633966 8.80574 0.0108457 8.27284 0.0182118L8.27315 0.0188727ZM13.069 0.6912C15.1736 0.733051 15.8748 0.774902 17.5677 0.96424C18.1365 1.02668 18.8632 1.10436 19.1841 1.13299C20.5286 1.25703 21.087 1.38477 21.7925 1.71943C22.5813 2.09593 22.9637 2.51141 23.2143 3.27181C23.3072 3.55221 23.5557 4.56435 23.7597 5.48108C23.9228 6.21499 24.1449 7.64849 24.2408 8.55635C24.2948 9.08854 24.3212 11.1185 24.2795 11.7366C24.2458 12.2606 24.202 12.5512 24.0829 13.0209C23.83 14.0359 23.4191 14.7941 22.9067 15.189C22.3379 15.6271 21.5857 15.9208 20.4482 16.1468C19.4789 16.3383 18.5635 16.4191 16.5597 16.4866C14.7525 16.546 14.0544 16.5901 13.2115 16.6965C12.498 16.7853 12.172 16.8991 12.0089 17.1149C11.8693 17.299 11.7406 17.6933 11.7246 17.9765C11.7224 18.0565 11.6939 18.2151 11.6654 18.3296C11.5623 18.7399 11.544 18.9262 11.5462 19.6404C11.5492 20.4242 11.5827 20.7692 11.7246 21.4467C11.7764 21.6881 11.8255 21.9192 11.8335 21.9633C11.8488 22.036 11.8488 22.039 11.797 22.0021C11.7684 21.9815 11.5827 21.8547 11.3861 21.7196C10.541 21.1434 10.0315 20.5593 9.58925 19.6534C9.41601 19.3004 9.21208 18.7161 8.98464 17.9271C8.7412 17.0809 8.40786 16.6758 7.86463 16.5641C7.61685 16.512 7.15629 16.4782 6.50199 16.4598C5.58457 16.437 4.56326 16.3952 4.18826 16.3696C3.15678 16.2939 2.15083 16.0811 1.63108 15.8294C1.48918 15.7619 1.38546 15.6869 1.2539 15.5541C0.765526 15.061 0.661798 14.4379 0.659621 11.9562C0.659621 10.7446 0.661789 10.7055 0.757501 9.59448C0.892062 8.01866 0.95126 7.28694 0.995112 6.60947C1.08349 5.2781 1.17853 4.58233 1.34461 4.08095C1.471 3.70228 1.77882 3.09458 2.01124 2.77016C2.47397 2.11626 3.20578 1.51443 3.83959 1.25965C4.6021 0.953631 6.19503 0.727462 7.87279 0.683449C8.60465 0.662858 11.963 0.668048 13.069 0.690815L13.069 0.6912ZM23.8482 2.6487C24.0441 2.79919 24.3783 3.13383 24.4271 3.22777C24.4476 3.26376 24.3394 3.20132 24.1113 3.05082C23.778 2.82549 23.7648 2.81227 23.7004 2.66411C23.6646 2.5789 23.6412 2.50859 23.6514 2.50859C23.6587 2.50859 23.7471 2.57103 23.848 2.64871L23.8482 2.6487ZM24.1582 3.33941C24.2795 3.41206 24.4375 3.49493 24.5068 3.5259C24.6442 3.58098 24.6546 3.59856 24.7708 3.93102L24.8176 4.06612L24.4631 3.79609C23.9931 3.43566 23.9492 3.39381 23.9281 3.29253C23.9179 3.24851 23.9179 3.20967 23.9229 3.20967C23.9309 3.20967 24.0369 3.26909 24.1583 3.33957L24.1582 3.33941ZM24.6932 4.16722L24.8898 4.27369L24.9702 4.57753C25.0162 4.74343 25.0477 4.88355 25.0447 4.88656C25.0426 4.88874 24.8715 4.75666 24.6646 4.59293C24.4576 4.42921 24.2589 4.27887 24.22 4.25828C24.1813 4.23987 24.1447 4.20103 24.1375 4.17759C24.1221 4.12034 24.0439 3.78352 24.0439 3.7651C24.0439 3.75991 24.1448 3.82235 24.272 3.90522C24.3956 3.99043 24.5849 4.10778 24.6931 4.16721L24.6932 4.16722ZM24.5617 4.80067C24.7116 4.90196 24.895 5.0106 24.9704 5.04207C25.0427 5.07589 25.1041 5.11188 25.1041 5.1221C25.1041 5.13532 25.1326 5.30708 25.1663 5.50663C25.2 5.70635 25.2263 5.87292 25.2233 5.87292C25.2233 5.87509 25.0194 5.68057 24.776 5.44136L24.3314 5.00829L24.2824 4.7977C24.2509 4.6626 24.2437 4.59296 24.2612 4.60317C24.2772 4.6112 24.4118 4.70227 24.5617 4.80054L24.5617 4.80067ZM24.7451 5.77681C24.8481 5.86704 25.0039 5.98958 25.0888 6.04399C25.1765 6.10124 25.2547 6.1585 25.262 6.17607C25.2722 6.19449 25.2883 6.3192 25.2985 6.4543L25.319 6.70089L25.1538 6.54537C25.0631 6.45949 24.8797 6.27534 24.7451 6.13724C24.5302 5.9171 24.5016 5.87307 24.4811 5.76074C24.468 5.69394 24.4526 5.60806 24.4453 5.57424C24.4293 5.51398 24.4293 5.51398 24.4913 5.56102C24.5278 5.58965 24.6412 5.68574 24.7449 5.77681H24.7451ZM24.8978 6.60462C25.0316 6.71109 25.1845 6.82258 25.2385 6.85121C25.316 6.89825 25.3372 6.92386 25.3372 6.9863C25.3372 7.02748 25.3445 7.12876 25.3547 7.20644L25.3707 7.34957L25.0111 6.99869C24.8145 6.80717 24.644 6.63826 24.636 6.62286C24.6259 6.60964 24.6127 6.54719 24.6024 6.48492C24.5818 6.35283 24.5637 6.3448 24.8977 6.60461L24.8978 6.60462ZM24.9337 7.24309C25.0529 7.33416 25.2026 7.44046 25.27 7.47947L25.3884 7.54927V7.78046C25.3884 7.97783 25.3832 8.01165 25.3525 7.99323C25.332 7.98001 25.1873 7.85814 25.0316 7.72086L24.7473 7.46908L24.7319 7.31791C24.7217 7.23505 24.7086 7.14682 24.7012 7.12121C24.6932 7.09778 24.6932 7.07719 24.7012 7.07719C24.7114 7.07719 24.8146 7.15202 24.9337 7.24309ZM25.1741 8.13051C25.2597 8.19077 25.3445 8.242 25.3605 8.24786C25.3811 8.25523 25.3884 8.34111 25.3832 8.51203L25.3759 8.76381L25.1251 8.56928C24.9877 8.46281 24.8693 8.36672 24.8641 8.35651C24.8561 8.3463 24.843 8.23179 24.8326 8.10255L24.8121 7.87137L24.913 7.9462C24.97 7.99022 25.0863 8.07393 25.174 8.13035L25.1741 8.13051ZM25.226 8.81085L25.3882 8.90694V9.19756C25.3882 9.35827 25.3831 9.49119 25.3757 9.49119C25.3677 9.49119 25.2668 9.41552 25.1484 9.32244L24.9305 9.15588L24.913 8.99517C24.905 8.90711 24.8977 8.78239 24.8977 8.71995V8.60326L24.9825 8.6575C25.0264 8.68914 25.1374 8.75661 25.226 8.81085ZM25.161 9.55278L25.3759 9.69289L25.3679 9.94534C25.3577 10.2331 25.3731 10.2279 25.1149 10.054L24.949 9.94534V9.73759C24.949 9.62308 24.9417 9.50339 24.9337 9.46974C24.9235 9.43894 24.9235 9.41316 24.9307 9.41316C24.9417 9.41316 25.0447 9.47476 25.161 9.5526V9.55278ZM25.1661 10.3476L25.3372 10.4255L25.3342 10.6016C25.332 10.6977 25.324 10.8512 25.3137 10.9443L25.2983 11.113L25.21 10.9575C25.161 10.8716 25.0812 10.7447 25.0346 10.6721C24.9644 10.5656 24.949 10.5187 24.949 10.4071C24.949 10.3314 24.9592 10.2698 24.9724 10.2698C24.9825 10.2698 25.0702 10.3058 25.1661 10.3476ZM25.1763 11.3546C25.2852 11.4897 25.2882 11.4999 25.272 11.6218L25.2545 11.7487L25.1018 11.5439C24.9592 11.3516 24.949 11.3288 24.9519 11.1989V11.0609L25.0089 11.1366C25.0396 11.1778 25.1149 11.2767 25.1763 11.3546ZM25.2567 12.0995C25.2515 12.3667 25.2362 12.3696 25.0681 12.1334C24.9825 12.0167 24.9132 11.9022 24.9132 11.8816C24.9132 11.8581 24.9153 11.8009 24.9183 11.7547L24.9235 11.666L25.0916 11.8193C25.2547 11.9676 25.2568 11.9727 25.2568 12.0997L25.2567 12.0995ZM25.2128 12.774C25.2026 12.9796 25.1763 13.0286 25.1303 12.9406C25.1119 12.9068 25.0396 12.8055 24.9724 12.7174C24.843 12.5537 24.8225 12.476 24.8613 12.3255C24.8767 12.2705 24.8898 12.2756 25.0499 12.429L25.221 12.5927L25.213 12.774L25.2128 12.774ZM25.0988 13.1249C25.1791 13.1843 25.1821 13.1976 25.1638 13.2856L25.1426 13.3817L24.9752 13.1453C24.7471 12.8239 24.7398 12.8077 24.8868 12.9428C24.957 13.008 25.0527 13.0881 25.0988 13.1247L25.0988 13.1249ZM25.0476 13.5352L25.1353 13.6181L25.1169 13.8126L25.0986 14.01L24.8558 13.7554C24.7242 13.6152 24.6154 13.4853 24.6124 13.4676C24.6124 13.4463 24.6307 13.3663 24.6541 13.2856L24.6979 13.1403L24.8303 13.2936C24.9027 13.3789 25.0007 13.4882 25.0474 13.535L25.0476 13.5352ZM24.7216 13.8935C24.8123 13.9735 24.9285 14.0696 24.9804 14.1086L25.0782 14.176L25.0629 14.3265C25.0242 14.6774 25.0446 14.6744 24.7683 14.3426C24.6337 14.1789 24.5065 14.0255 24.4861 13.9999C24.4576 13.9633 24.4555 13.9346 24.481 13.8516C24.4963 13.7944 24.5227 13.7482 24.535 13.7482C24.5482 13.7482 24.6337 13.8128 24.7214 13.8935L24.7216 13.8935ZM24.843 14.7031C24.9877 14.8043 24.9877 14.8022 24.8898 15.0275L24.8328 15.1522L24.574 14.8358C24.2122 14.3919 24.2355 14.4329 24.2874 14.3264L24.3312 14.2331L24.5198 14.4225C24.6237 14.5268 24.7684 14.6506 24.843 14.7029L24.843 14.7031ZM24.4189 15.0171C24.6931 15.2843 24.7187 15.3181 24.6909 15.368C24.6544 15.4348 24.5352 15.5749 24.525 15.5625C24.5228 15.5573 24.4913 15.5105 24.4555 15.4612C24.4218 15.412 24.3027 15.2615 24.1915 15.1266L23.9876 14.8852L24.0336 14.7965C24.0599 14.7473 24.0906 14.7113 24.1008 14.7136C24.1088 14.7188 24.2535 14.8537 24.4188 15.0174L24.4189 15.0171ZM24.1273 15.4016C24.2822 15.5543 24.4066 15.6923 24.4066 15.7077C24.4066 15.7231 24.3679 15.7751 24.3211 15.8192L24.2334 15.905L24.1346 15.7803C24.0806 15.7129 23.9592 15.5697 23.8685 15.4684C23.7646 15.3496 23.7106 15.2687 23.7238 15.2483C23.7523 15.1962 23.8167 15.1236 23.8348 15.1236C23.8428 15.1236 23.9744 15.2483 24.1273 15.4018L24.1273 15.4016ZM23.7443 15.6372C23.8452 15.7333 23.9746 15.85 24.0316 15.897L24.1346 15.9799L24.0549 16.0606L23.9746 16.1384L23.7238 15.8272C23.4935 15.5409 23.4525 15.4609 23.5322 15.4609C23.5475 15.4609 23.6433 15.5409 23.7441 15.637L23.7443 15.6372ZM23.5791 15.9616L23.848 16.242L23.7705 16.3045C23.7288 16.3411 23.6821 16.3669 23.6666 16.3617C23.6513 16.3595 23.5247 16.2266 23.3873 16.0711L23.1395 15.7857L23.2119 15.7284C23.2506 15.6946 23.2894 15.6712 23.2968 15.6764C23.3048 15.6794 23.4313 15.8093 23.5789 15.9618L23.5791 15.9616ZM23.204 16.2295C23.4343 16.4474 23.4803 16.5047 23.4497 16.5253C23.3386 16.6001 23.3049 16.5877 22.9839 16.3308C22.8107 16.1928 22.677 16.0739 22.6841 16.0657C22.7258 16.0239 22.8472 15.9564 22.8807 15.9564C22.9012 15.9564 23.0488 16.079 23.2039 16.2295L23.204 16.2295ZM22.5396 16.3821C22.6435 16.46 22.7984 16.5613 22.8809 16.6081C22.9664 16.6552 23.0358 16.7014 23.0358 16.7124C23.0358 16.7278 22.7697 16.8365 22.728 16.8365C22.7178 16.8365 22.6973 16.8109 22.682 16.7771C22.666 16.7454 22.5651 16.6185 22.4569 16.4938C22.348 16.3698 22.2603 16.2604 22.2603 16.2531C22.2603 16.206 22.3765 16.2583 22.5396 16.3823L22.5396 16.3821ZM22.2706 16.639L22.5346 16.912L22.3818 16.9532C22.2993 16.9766 22.2269 16.992 22.2218 16.987C22.1749 16.9408 21.8211 16.46 21.8211 16.4446C21.8211 16.4262 21.9351 16.3771 21.9863 16.3719C21.9995 16.3698 22.1259 16.4916 22.2706 16.6391L22.2706 16.639ZM1.8511 16.5537C1.88178 16.564 1.96732 16.6806 2.05003 16.8209C2.1384 16.9743 2.17725 17.0595 2.14874 17.0469C2.07854 17.0081 1.76572 16.6652 1.71952 16.5743C1.67784 16.4937 1.67784 16.4937 1.73703 16.5119C1.77072 16.5221 1.82041 16.5405 1.8511 16.5537ZM21.606 16.5949C21.6345 16.6368 21.7384 16.7565 21.8341 16.8628C22.0249 17.0755 22.0249 17.0595 21.8026 17.1042C21.7251 17.1196 21.7119 17.1094 21.5131 16.873C21.3969 16.7379 21.304 16.6162 21.304 16.6058C21.304 16.5845 21.4408 16.5325 21.5131 16.5273C21.5336 16.5251 21.5753 16.5559 21.606 16.5948L21.606 16.5949ZM2.33217 16.6808C2.40671 16.7014 2.43306 16.7278 2.4564 16.7953C2.47174 16.8415 2.55145 16.9979 2.63699 17.1432C2.72253 17.2885 2.79189 17.4125 2.79189 17.4206C2.79189 17.4286 2.72469 17.4 2.64199 17.3581C2.49209 17.2833 2.48992 17.2803 2.34452 16.9795C2.26481 16.8129 2.19761 16.6726 2.19761 16.6654C2.19761 16.65 2.22829 16.6522 2.33217 16.6808ZM21.276 16.9252C21.5033 17.1534 21.5165 17.1718 21.4566 17.1844C21.2373 17.2364 21.1598 17.2468 21.1466 17.2314C21.1386 17.2212 21.0589 17.1249 20.9654 17.0186C20.7073 16.7176 20.7176 16.7382 20.8185 16.7096C20.9991 16.6575 21.0202 16.6678 21.2762 16.9254L21.276 16.9252ZM2.87472 16.8159C2.8959 16.8343 2.95292 16.9142 2.99895 16.992C3.0458 17.0705 3.16486 17.2445 3.26574 17.3765C3.36362 17.5086 3.44115 17.6203 3.43615 17.6253C3.42081 17.6414 3.0428 17.5401 3.02246 17.5167C3.01229 17.5065 2.93475 17.3375 2.84921 17.1402L2.69431 16.7849H2.76384C2.80252 16.7849 2.85221 16.8003 2.87489 16.8157L2.87472 16.8159ZM20.914 17.2885C20.9082 17.2958 20.8257 17.3091 20.7356 17.3171L20.5676 17.3347L20.3658 17.0909L20.1662 16.8495L20.3008 16.8209L20.4382 16.7923L20.6838 17.0337C20.8183 17.1658 20.9214 17.2803 20.914 17.2883L20.914 17.2885ZM3.5116 16.9354C3.58114 17.0235 3.98167 17.7009 3.97147 17.7112C3.96129 17.7214 3.66883 17.6752 3.65865 17.662C3.64548 17.6466 3.36402 17.1504 3.28648 17.0103L3.20394 16.8598L3.34067 16.8782C3.42104 16.8855 3.49057 16.912 3.51175 16.9354L3.5116 16.9354ZM20.0501 17.1401C20.1693 17.267 20.257 17.3765 20.2497 17.3867C20.2395 17.3948 20.1663 17.4102 20.0866 17.4206L19.944 17.439L19.7583 17.1924C19.5617 16.9274 19.5617 16.9252 19.7481 16.9172C19.8226 16.9141 19.8592 16.9428 20.0501 17.1403V17.1401ZM4.04689 17.1872C4.11926 17.3141 4.22748 17.4932 4.28967 17.5843C4.34887 17.6753 4.39272 17.7554 4.38755 17.7634C4.35971 17.789 4.16312 17.74 4.16312 17.7062C4.16312 17.6877 4.08058 17.5088 3.98186 17.3039C3.81662 16.9714 3.80645 16.9376 3.85764 16.9456C3.89932 16.9508 3.95118 17.0183 4.04706 17.187L4.04689 17.1872ZM4.40589 17.0367C4.44975 17.1145 4.84309 17.6283 4.93598 17.7296C4.996 17.7942 5.01134 17.8257 4.98283 17.8125C4.95649 17.8044 4.86661 17.7971 4.78107 17.7971H4.62833L4.47626 17.4902C4.39072 17.3243 4.28984 17.135 4.25116 17.0725L4.18096 16.958L4.28184 16.9793C4.33887 16.9866 4.3929 17.0153 4.40607 17.0365L4.40589 17.0367ZM19.4691 17.2128C19.5875 17.3508 19.676 17.4674 19.668 17.4748C19.66 17.4828 19.6089 17.4961 19.554 17.5034L19.4531 17.5166L19.2674 17.267C19.1635 17.132 19.0809 17.0131 19.0809 17.0079C19.0809 16.9977 19.1511 16.9793 19.2287 16.9691C19.244 16.9691 19.3522 17.0777 19.4691 17.2128ZM4.87374 17.0183C4.94094 17.0183 4.96211 17.0367 5.02648 17.1555C5.07033 17.2282 5.17638 17.4052 5.26692 17.5453C5.35763 17.6854 5.43 17.8044 5.43 17.8103C5.43 17.8176 5.34963 17.8228 5.25158 17.8228C5.0885 17.8228 5.07316 17.8176 5.08567 17.7736C5.09367 17.7398 5.02648 17.6025 4.88975 17.3737C4.77286 17.1843 4.67998 17.0184 4.67998 17.0052C4.67998 16.995 4.70549 16.992 4.73917 17.003C4.77069 17.0104 4.83272 17.0184 4.87373 17.0184L4.87374 17.0183ZM5.39865 17.0337C5.43734 17.0439 5.48119 17.0983 5.52588 17.1842C5.56173 17.2568 5.65461 17.4234 5.72981 17.5555C5.80734 17.6854 5.86937 17.7992 5.86937 17.8073C5.86937 17.8153 5.81752 17.8227 5.75532 17.8227C5.65744 17.8227 5.63693 17.8125 5.62076 17.7632C5.61059 17.7316 5.52288 17.5577 5.427 17.3765C5.32912 17.1974 5.24858 17.0419 5.24858 17.0338C5.24858 17.0133 5.32095 17.0154 5.39848 17.0338L5.39865 17.0337ZM18.9725 17.2701C19.197 17.5372 19.1998 17.5555 19.0266 17.5607C18.9695 17.5637 18.9257 17.5218 18.7729 17.3169C18.6699 17.179 18.5945 17.0571 18.6025 17.0439C18.6099 17.0285 18.6516 17.0183 18.6902 17.0183C18.7494 17.0183 18.7991 17.0623 18.9724 17.2701L18.9725 17.2701ZM5.88443 17.0645C5.90277 17.0755 6.01082 17.2178 6.12787 17.3815C6.2441 17.5453 6.36248 17.706 6.391 17.7346C6.44069 17.7888 6.44069 17.7888 6.38083 17.8073C6.34714 17.8153 6.2616 17.8227 6.18924 17.8227H6.05768L5.90777 17.4776C5.82524 17.2905 5.7477 17.1217 5.73736 17.1063C5.72419 17.0909 5.72135 17.0703 5.73152 17.0623C5.75487 17.0389 5.84841 17.0389 5.88426 17.0653V17.0646L5.88443 17.0645ZM18.5504 17.3581L18.7441 17.5863L18.6074 17.6024C18.532 17.6126 18.4443 17.6149 18.4136 17.6097C18.38 17.6045 18.2864 17.5033 18.165 17.3425L17.9713 17.0827L18.1182 17.0702C18.2944 17.0541 18.2893 17.0518 18.5502 17.3579L18.5504 17.3581ZM6.60796 17.3221C6.70368 17.4622 6.8149 17.6179 6.85658 17.67C6.94212 17.7838 6.92611 17.7969 6.70167 17.7969L6.55394 17.7939L6.4714 17.6199C6.42755 17.5238 6.34201 17.3608 6.28281 17.2567L6.17393 17.0702H6.43488L6.60813 17.3219L6.60796 17.3221ZM7.09186 17.361C7.37849 17.8021 7.37116 17.7704 7.20291 17.7704H7.05818L6.99098 17.6332C6.9523 17.5605 6.87176 17.41 6.80973 17.3007C6.74754 17.192 6.69635 17.096 6.69635 17.0879C6.69635 17.0777 6.74237 17.0703 6.79723 17.0703C6.90028 17.0703 6.90027 17.0725 7.09186 17.361ZM7.46687 17.1482C7.47204 17.1636 7.55674 17.3089 7.65546 17.4726C7.75334 17.6363 7.83387 17.7765 7.83387 17.7838C7.83387 17.7919 7.76668 17.7971 7.68614 17.7919L7.53624 17.7838L7.34982 17.436L7.16406 17.0881L7.31096 17.1042C7.39133 17.1115 7.46087 17.1321 7.4667 17.1482L7.46687 17.1482ZM17.7104 17.1165C17.7104 17.1268 17.8082 17.2465 17.9275 17.3816L18.1467 17.6281L17.9735 17.6487C17.8236 17.67 17.7981 17.6671 17.7745 17.6281C17.7614 17.6025 17.6715 17.4798 17.5756 17.3529C17.4769 17.2282 17.3994 17.1165 17.3994 17.1092C17.3994 17.1011 17.4696 17.096 17.5543 17.096C17.6398 17.096 17.71 17.1062 17.71 17.1165H17.7104ZM16.6789 17.3221C16.7666 17.4336 16.88 17.5687 16.9318 17.6201C17.0195 17.7162 17.0225 17.7192 16.9603 17.7192C16.9245 17.7192 16.8361 17.7266 16.7637 17.7346L16.6322 17.75L16.4356 17.4572C16.2213 17.138 16.2185 17.1217 16.4101 17.1217C16.5131 17.1217 16.5235 17.1298 16.679 17.3221L16.6789 17.3221ZM17.2498 17.4L17.5006 17.6804L17.3405 17.6929C17.2528 17.701 17.1753 17.6981 17.1724 17.6877C17.1673 17.6752 17.0899 17.5578 17.0044 17.4257C16.9167 17.2937 16.8339 17.1711 16.8238 17.1534C16.8078 17.1299 16.8289 17.1217 16.9013 17.1217C16.997 17.1217 17.0147 17.1378 17.25 17.4H17.2498ZM16.1745 17.4338C16.3009 17.5916 16.4099 17.7318 16.4121 17.745C16.4173 17.7604 16.3551 17.7706 16.2572 17.7706L16.0941 17.7684L15.934 17.5813C15.8463 17.48 15.7271 17.3399 15.6679 17.2701L15.559 17.1482H15.9472L16.1745 17.4336V17.4338ZM7.98594 17.2752C8.07148 17.3427 8.21921 17.5762 8.27024 17.7244C8.29658 17.797 8.29358 17.797 8.1877 17.797H8.07948L7.9164 17.483C7.75333 17.1689 7.75333 17.1689 7.8257 17.1843C7.86438 17.1945 7.93675 17.2364 7.98577 17.2754L7.98594 17.2752ZM15.5568 17.4646C15.7169 17.6253 15.8485 17.7656 15.8485 17.7765C15.8485 17.789 15.7739 17.7971 15.6804 17.7971H15.5151L15.4194 17.6466C15.3676 17.5659 15.2747 17.4308 15.2125 17.3508C15.1503 17.2701 15.0991 17.1974 15.0991 17.1892C15.0991 17.1818 15.1378 17.1738 15.1816 17.1738C15.254 17.1738 15.3059 17.2157 15.5567 17.4644L15.5568 17.4646ZM14.8017 17.2547C14.8118 17.2855 14.9127 17.4175 15.0239 17.5526L15.2309 17.7971H15.1066C14.9852 17.7971 14.9772 17.7919 14.8485 17.6333C14.7731 17.5453 14.6591 17.4102 14.5927 17.3347L14.4707 17.1996H14.6286C14.7653 17.1996 14.7886 17.2076 14.8018 17.2547H14.8017ZM14.4632 17.524L14.768 17.8227H14.4653L14.2409 17.5401C14.1137 17.3867 14.0128 17.2516 14.0128 17.2414C14.0128 17.2334 14.0443 17.226 14.0851 17.226C14.14 17.226 14.2225 17.2935 14.4632 17.524ZM13.9689 17.5372L14.2197 17.8205L14.132 17.8359C14.0852 17.8461 14.0231 17.8491 13.9953 17.8433C13.9383 17.8331 13.439 17.3061 13.4594 17.2723C13.4674 17.262 13.5265 17.2517 13.5939 17.2547C13.716 17.2547 13.716 17.2547 13.9689 17.5372ZM13.3125 17.4674C13.4053 17.5555 13.5501 17.6876 13.6326 17.7581L13.7803 17.888L13.6071 17.8901C13.4338 17.8931 13.4317 17.8931 13.3643 17.7991C13.3256 17.7477 13.2298 17.6199 13.1494 17.5187C13.069 17.4152 13.0046 17.3241 13.0046 17.3168C13.0046 17.3087 13.0353 17.3035 13.0742 17.3035C13.1239 17.3035 13.1911 17.3506 13.3125 17.4673L13.3125 17.4674ZM13.0588 17.7581L13.2584 17.9658L13.1882 18.1059L13.1159 18.2432L13.0588 18.1705C13.0282 18.1294 12.8549 17.9424 12.6787 17.7529C12.4827 17.5423 12.3687 17.405 12.387 17.3918C12.4024 17.3837 12.4747 17.3662 12.5501 17.3558C12.6817 17.3374 12.6817 17.3374 12.7724 17.4438C12.8214 17.5033 12.9508 17.6435 13.059 17.7579L13.0588 17.7581ZM12.9865 18.3629L13.0588 18.4149L12.9996 18.6116C12.969 18.721 12.9353 18.809 12.9273 18.809C12.9193 18.809 12.8988 18.7834 12.8783 18.7496C12.8571 18.7179 12.705 18.503 12.5369 18.2747C12.2833 17.929 12.2291 17.8379 12.2291 17.7652C12.2291 17.716 12.2343 17.6698 12.2423 17.6618C12.2496 17.6537 12.4054 17.7969 12.586 17.9782C12.7672 18.1601 12.9478 18.3312 12.9866 18.3627L12.9865 18.3629ZM12.5084 18.5808C12.6115 18.7056 12.7439 18.8458 12.7979 18.8949L12.9018 18.983L12.8653 19.1701C12.8447 19.2736 12.8236 19.3616 12.8184 19.3668C12.8132 19.3727 12.6562 19.1671 12.4697 18.9103L12.1261 18.4428L12.1568 18.3085L12.1853 18.1734L12.2525 18.2636C12.2883 18.3135 12.4052 18.456 12.5083 18.5807L12.5084 18.5808ZM12.1261 18.7782C12.1261 18.8407 12.7072 19.4844 12.7642 19.4844C12.7897 19.4844 12.7979 19.5518 12.7957 19.7618V20.0422L12.7387 19.9665C12.4127 19.5254 12.2548 19.3207 12.1598 19.2061L12.0457 19.071L12.0641 18.9155C12.0714 18.8275 12.0926 18.757 12.1028 18.757C12.1153 18.757 12.1261 18.768 12.1261 18.7782ZM12.4829 19.8938C12.635 20.0471 12.6868 20.084 12.7359 20.0729C12.7981 20.0627 12.7981 20.0656 12.7981 20.2733C12.7981 20.3872 12.8061 20.5485 12.8164 20.6264L12.8317 20.7688L12.7339 20.6389C12.6228 20.4936 12.4211 20.2551 12.1988 20.0063L12.0482 19.8397V19.4192L12.1703 19.5623C12.2346 19.6402 12.3772 19.7905 12.4831 19.8941L12.4829 19.8938ZM12.7622 20.8237C12.8266 20.8391 12.8346 20.8626 12.8631 21.1555L12.8756 21.3089L12.6505 21.0983C12.5241 20.9845 12.3559 20.8209 12.2733 20.735C12.1338 20.5925 12.1206 20.5713 12.1001 20.4158C12.0876 20.3255 12.0746 20.2293 12.0746 20.203C12.0746 20.1722 12.1856 20.2705 12.3874 20.4812C12.5606 20.6604 12.7287 20.8159 12.7624 20.8239L12.7622 20.8237ZM12.4749 21.1688C12.6175 21.2833 12.7696 21.3919 12.8134 21.4073C12.8909 21.4359 12.8938 21.4462 12.9223 21.6591C12.9376 21.7816 12.9478 21.8851 12.9428 21.8903C12.9376 21.8955 12.7776 21.7478 12.586 21.5607C12.2885 21.2752 12.2321 21.2076 12.219 21.1269C12.2088 21.0727 12.1934 21.0081 12.1853 20.9794C12.1669 20.9192 12.1648 20.917 12.4747 21.1688L12.4749 21.1688ZM12.8836 22.0774C12.9633 22.1369 13.0305 22.1993 13.0305 22.2176C13.0305 22.2351 13.0642 22.3158 13.1059 22.3967C13.1681 22.5186 13.1731 22.542 13.1366 22.5207C13.0802 22.4928 12.4881 22.062 12.4414 22.0172C12.4129 21.9885 12.3384 21.7346 12.3325 21.6567C12.3325 21.6435 12.4232 21.7088 12.5343 21.7992C12.6432 21.8931 12.8011 22.015 12.8838 22.0774L12.8836 22.0774ZM12.7257 22.4511C12.8449 22.5289 13.0283 22.6404 13.1394 22.7007C13.3046 22.7909 13.3595 22.8408 13.4757 22.9965C13.5502 23.0978 13.6204 23.1962 13.633 23.2145C13.6563 23.2533 13.3413 23.108 12.9897 22.9187C12.7931 22.8144 12.7075 22.7549 12.6563 22.6773C12.6177 22.62 12.576 22.573 12.5628 22.573C12.5526 22.573 12.5291 22.5289 12.5168 22.4747C12.4853 22.3704 12.4803 22.314 12.5008 22.314C12.5059 22.314 12.6097 22.3756 12.7259 22.4513L12.7257 22.4511Z"
    fill="#F06262" />
  <path fill-rule="evenodd" clip-rule="evenodd"
    d="M17.1711 6.84132C17.0231 6.89319 16.8667 6.98784 16.6876 7.13048C16.2414 7.48688 15.9385 8.07132 15.9385 8.57963C15.9385 8.81007 15.9847 8.99698 16.1025 9.23665C16.2117 9.45561 16.3317 9.62269 16.4956 9.7746C16.6467 9.91575 16.7818 9.99596 16.9844 10.0676C17.1954 10.1425 17.4998 10.1569 17.8209 10.1104C18.3895 10.0273 18.705 9.81961 18.904 9.40007C19.159 8.86582 19.1515 8.06004 18.8897 7.65032C18.7439 7.42359 18.3159 7.03218 18.1238 6.95289C18.0274 6.91177 17.6805 6.83378 17.5956 6.83378C17.5591 6.83378 17.5219 6.82471 17.5167 6.81544C17.4963 6.78192 17.2989 6.79711 17.1714 6.84138L17.1711 6.84132ZM17.3669 7.04509C17.2986 7.10455 17.2949 7.10696 17.2895 7.06954C17.2796 7.02304 17.3297 6.98248 17.3942 6.98248C17.4368 6.98248 17.4351 6.98637 17.3669 7.04509L17.3669 7.04509ZM17.2151 7.13437C17.2227 7.17716 17.2098 7.21977 17.1672 7.29238C17.1361 7.34573 17.1042 7.39074 17.0974 7.39074C17.0883 7.39074 17.0823 7.33276 17.0823 7.26256C17.0823 7.15122 17.0883 7.13048 17.1248 7.10696C17.1856 7.06194 17.2061 7.06954 17.2151 7.13437L17.2151 7.13437ZM17.7949 7.1214C17.8708 7.14734 17.9779 7.19013 18.0295 7.21606C18.2565 7.33128 18.6124 7.68546 18.7156 7.90054C18.9334 8.34771 18.8355 9.15128 18.5197 9.51305C18.3816 9.67106 18.1949 9.75794 17.8777 9.81222L17.71 9.84204L17.6144 9.79017C17.4755 9.71534 17.2485 9.47804 17.1696 9.32393C17.0475 9.09201 17.0178 8.9477 17.0178 8.57832C17.0178 8.21821 17.0346 8.09761 17.1302 7.80217C17.2137 7.54506 17.3465 7.2924 17.4611 7.1718C17.5718 7.05807 17.5954 7.0551 17.7951 7.12142L17.7949 7.1214ZM17.0268 7.242C17.0268 7.26033 17.0397 7.31609 17.0548 7.36259C17.0806 7.43501 17.0806 7.45187 17.0563 7.49615L17.0305 7.54653L17.0101 7.4741C16.9972 7.43372 16.9828 7.355 16.9774 7.30165C16.9684 7.21995 16.9714 7.20551 16.9972 7.20551C17.0139 7.20551 17.0268 7.21996 17.0268 7.24219V7.242ZM16.9236 7.38852C16.9387 7.4389 16.9623 7.50374 16.9791 7.53504C16.9995 7.57394 17.0034 7.60599 16.9942 7.6334C16.9843 7.65545 16.9738 7.66693 16.9662 7.65785C16.9389 7.60969 16.8606 7.38166 16.8606 7.34202C16.8606 7.26792 16.894 7.29237 16.9236 7.38851L16.9236 7.38852ZM16.8706 7.5908C16.929 7.73417 16.9365 7.77085 16.9236 7.82124C16.9069 7.87848 16.9032 7.87311 16.8205 7.65952C16.7575 7.49466 16.7392 7.43131 16.7536 7.41297C16.7816 7.38166 16.7893 7.39093 16.8704 7.5908H16.8706ZM16.7856 7.73417C16.8759 7.92645 16.8835 7.95239 16.8706 8.03259C16.8645 8.07909 16.8516 8.11039 16.8426 8.1028C16.835 8.09372 16.7818 7.96924 16.7248 7.82883C16.6451 7.63193 16.627 7.56487 16.6414 7.54653C16.6528 7.53134 16.6672 7.5206 16.6747 7.5206C16.6801 7.5206 16.7302 7.61673 16.7855 7.73418L16.7856 7.73417ZM16.6954 7.98073C16.8024 8.20505 16.8321 8.28526 16.8243 8.32564C16.8168 8.37214 16.7947 8.33472 16.6618 8.05315C16.5251 7.76159 16.4993 7.68527 16.5434 7.68768C16.5509 7.68768 16.6193 7.81901 16.6952 7.98073H16.6954ZM16.5732 8.10132C16.6401 8.23099 16.7228 8.38362 16.7598 8.43864C16.8153 8.52644 16.8243 8.55775 16.8243 8.64852V8.75466L16.6248 8.37992C16.5163 8.17153 16.4183 8.00296 16.407 8.00296C16.3333 8.00296 16.3903 8.17005 16.5657 8.46847C16.6377 8.59128 16.7265 8.72484 16.7637 8.76374C16.8116 8.8195 16.8335 8.86599 16.854 8.96065C16.8669 9.02937 16.8759 9.08883 16.8744 9.09198C16.8645 9.09958 16.5526 8.67075 16.4092 8.45255L16.2817 8.26101L16.3061 8.17395C16.3296 8.07707 16.4328 7.84497 16.4442 7.85645C16.4496 7.86034 16.5072 7.97167 16.5732 8.10134L16.5732 8.10132ZM16.5384 8.77522C16.6082 8.86599 16.7267 9.00492 16.8002 9.08272C16.8746 9.16052 16.9352 9.23684 16.9352 9.2498C16.9352 9.26277 16.9572 9.32001 16.9832 9.3741C17.0272 9.47024 17.0104 9.45579 16.6311 9.06957L16.234 8.66519V8.54849C16.234 8.36306 16.2469 8.3577 16.3335 8.49273C16.3775 8.55757 16.4702 8.68575 16.5384 8.77504L16.5384 8.77522ZM17.0089 9.51542C17.1457 9.62453 17.2321 9.71381 17.2321 9.74123C17.2321 9.74882 17.251 9.76716 17.273 9.78013C17.326 9.81366 17.2966 9.8031 17.0498 9.70084C16.933 9.65435 16.8243 9.62064 16.8078 9.62675C16.7834 9.6336 16.7379 9.59859 16.6438 9.49856C16.5717 9.42224 16.4995 9.33296 16.4813 9.30017C16.4516 9.24071 16.4533 9.24071 16.5679 9.33296C16.8039 9.51913 17.1985 9.76568 17.2253 9.74123C17.2321 9.73215 16.9664 9.52987 16.5922 9.25886C16.3964 9.11993 16.363 9.08863 16.3297 9.01008C16.2355 8.78798 16.2484 8.79335 16.5681 9.10696C16.7343 9.27034 16.9331 9.4541 17.009 9.51523L17.0089 9.51542Z"
    fill="#F06262" />
  <path fill-rule="evenodd" clip-rule="evenodd"
    d="M7.89166 7.18843C7.84615 7.19529 7.75201 7.22122 7.67996 7.24716C7.6094 7.27383 7.48264 7.30662 7.39918 7.32199C7.22009 7.35478 6.95828 7.47611 6.78823 7.60207C6.72596 7.64857 6.66829 7.68747 6.65926 7.68913C6.63347 7.69136 6.38603 7.98829 6.30109 8.11944C6.01717 8.56513 5.97995 9.10453 6.19791 9.62801C6.46359 10.2591 7.00252 10.6192 7.68181 10.6192C7.9217 10.6192 8.07112 10.5857 8.27083 10.4871C8.83942 10.2071 9.27273 9.39976 9.23406 8.69845C9.20679 8.23609 9.02918 7.8636 8.67839 7.52401C8.40903 7.26616 8.13947 7.15094 7.89203 7.18817L7.89166 7.18843ZM7.7907 7.49982C7.77927 7.5089 7.72381 7.55391 7.66707 7.60207C7.55247 7.69284 7.54492 7.68913 7.57071 7.56095C7.57974 7.51519 7.59263 7.50223 7.64127 7.49611C7.75366 7.48166 7.80746 7.48315 7.79088 7.5L7.7907 7.49982ZM7.50457 7.63949C7.50457 7.72044 7.49554 7.76305 7.47656 7.7799C7.45298 7.80046 7.44929 7.7875 7.44929 7.67468C7.44929 7.60374 7.45464 7.5389 7.46219 7.53353C7.49333 7.50222 7.50475 7.52964 7.50475 7.63967L7.50457 7.63949ZM7.39383 7.6356C7.39383 7.67987 7.40139 7.74471 7.4106 7.78212C7.42129 7.83399 7.41742 7.8577 7.39383 7.89123L7.36049 7.93402L7.35146 7.86159C7.31277 7.59689 7.31424 7.5578 7.36822 7.5578C7.38646 7.5578 7.39402 7.57985 7.39402 7.6356L7.39383 7.6356ZM8.38654 7.66691C8.68189 7.91346 8.8571 8.2178 8.92009 8.59475C8.94736 8.75424 8.94975 8.80241 8.92912 8.96023C8.85708 9.52578 8.54516 10.0248 8.1413 10.2217C8.07073 10.2553 7.97658 10.2927 7.93255 10.3019L7.85277 10.3188L7.69635 10.1219C7.48392 9.85477 7.39345 9.66323 7.31755 9.32981C7.26965 9.10845 7.26209 9.04751 7.2713 8.92154C7.31386 8.39953 7.53164 7.98217 7.90659 7.71121C8.02266 7.62581 8.13505 7.57987 8.22772 7.57765C8.26107 7.57617 8.31266 7.60581 8.38636 7.66693L8.38654 7.66691ZM7.26469 7.66302C7.26617 7.69284 7.27759 7.77824 7.29049 7.85456C7.3102 7.96514 7.3102 8.00256 7.29196 8.03776C7.26469 8.09352 7.25474 8.08055 7.21992 7.90643C7.17442 7.68358 7.18123 7.62264 7.2518 7.61486C7.25861 7.61264 7.26469 7.63542 7.26469 7.66302ZM7.11675 7.74841C7.11675 7.77286 7.14106 7.87808 7.17054 7.98423C7.21071 8.12686 7.21992 8.18651 7.20537 8.21244C7.19634 8.23078 7.18491 8.24375 7.18105 8.23986C7.16428 8.223 7.04434 7.73544 7.05355 7.72249C7.074 7.68896 7.11656 7.7073 7.11656 7.74842L7.11675 7.74841ZM7.00601 7.85604C7.01744 7.89642 7.05392 8.02312 7.08947 8.13612C7.13885 8.30172 7.1464 8.35137 7.13203 8.39027L7.11306 8.43843L7.07824 8.35748C7.05778 8.31247 7.01228 8.17743 6.97506 8.05684C6.9196 7.87437 6.91205 7.834 6.9325 7.80954C6.96972 7.76305 6.98409 7.77453 7.0062 7.85604L7.00601 7.85604ZM6.89749 8.08425C6.92716 8.17354 6.98022 8.31784 7.01522 8.40324C7.08211 8.56495 7.10403 8.6948 7.05392 8.6283C7.00841 8.56884 6.78142 7.96516 6.79211 7.93624C6.81403 7.88048 6.84222 7.92105 6.89768 8.08424L6.89749 8.08425ZM6.76244 8.16446C6.78676 8.23077 6.86267 8.40175 6.9325 8.54457C7.00085 8.68572 7.05244 8.80094 7.04489 8.80094C7.02665 8.80094 6.6928 8.10276 6.6928 8.0661C6.6928 8.00664 6.72246 8.04702 6.76263 8.16446H6.76244ZM6.98409 8.823C7.02499 8.88413 7.04323 8.93062 7.04323 8.98027C7.04323 9.04899 7.04102 9.04751 6.94005 8.87505C6.88238 8.77817 6.7792 8.58348 6.70938 8.44085C6.61155 8.24635 6.58575 8.17762 6.60234 8.15855C6.61671 8.14021 6.6554 8.20356 6.77387 8.43548C6.85659 8.60034 6.95074 8.77502 6.98409 8.82318V8.823ZM6.60012 8.44215C6.69427 8.64443 6.86801 8.92822 6.97506 9.05493C7.02517 9.11217 7.06165 9.177 7.06921 9.21831C7.07676 9.25721 7.08063 9.29074 7.07676 9.2924C7.07289 9.29629 7.00233 9.21831 6.92107 9.11995C6.75562 8.91933 6.58704 8.68038 6.51721 8.53923C6.49142 8.48884 6.46175 8.44846 6.45273 8.44846C6.4437 8.44846 6.45273 8.41104 6.47465 8.36454C6.49658 8.31805 6.51721 8.28137 6.5209 8.28137C6.52237 8.28137 6.55738 8.3538 6.59975 8.44234L6.60012 8.44215ZM6.62444 8.88247C6.66166 8.93211 6.78695 9.07549 6.90302 9.20145C7.05631 9.36242 7.12079 9.44634 7.13001 9.48913L7.14143 9.55026L7.01393 9.44264C6.9441 9.38317 6.76649 9.22202 6.62076 9.08253L6.35655 8.83079L6.3665 8.72854C6.37332 8.67055 6.38622 8.59646 6.39911 8.56293L6.42104 8.50032L6.48939 8.64684C6.52808 8.72613 6.58962 8.83227 6.62444 8.88266L6.62444 8.88247ZM6.62592 9.19923C6.72983 9.30148 6.89381 9.44652 6.9933 9.5221C7.14806 9.63954 7.2225 9.71901 7.20057 9.74346C7.18381 9.7618 6.55996 9.39244 6.47501 9.31463C6.44167 9.28333 6.42877 9.27962 6.41808 9.30018C6.39763 9.33149 6.36428 9.19645 6.34973 9.02158L6.33831 8.88414L6.3899 8.94897C6.4179 8.98398 6.52274 9.09772 6.62592 9.19923ZM6.93416 9.69677C7.15194 9.80439 7.2483 9.86164 7.26285 9.89368C7.27575 9.91739 7.28183 9.94184 7.27575 9.94555C7.27188 9.95092 7.12854 9.89905 6.95996 9.83255C6.79064 9.76383 6.63735 9.71344 6.6191 9.71882C6.59478 9.72641 6.57286 9.70196 6.52809 9.61879C6.49695 9.55766 6.45826 9.47374 6.44388 9.43114L6.41588 9.35556L6.52292 9.45022C6.59662 9.51653 6.71638 9.58915 6.93434 9.69677H6.93416ZM7.03439 9.94944C7.12614 9.98074 7.23558 10.0143 7.27796 10.025C7.33876 10.0402 7.36824 10.0624 7.41227 10.1273C7.44415 10.1738 7.46387 10.2112 7.45852 10.2112C7.45317 10.2112 7.34392 10.1776 7.21495 10.1349C7.08745 10.0937 6.96751 10.0639 6.94559 10.07C6.89768 10.0808 6.76503 9.97314 6.67769 9.85107L6.61689 9.76567L6.74292 9.82902C6.81053 9.86403 6.94411 9.91757 7.03439 9.94962L7.03439 9.94944ZM7.42756 10.2684C7.49886 10.2799 7.5604 10.2982 7.5604 10.3073C7.5604 10.3318 7.43438 10.3088 7.30154 10.2645C7.24608 10.2462 7.22028 10.2332 7.24608 10.2386C7.27187 10.244 7.35312 10.2569 7.42756 10.2684Z"
    fill="#F06262" />
  <path fill-rule="evenodd" clip-rule="evenodd"
    d="M12.6251 7.2833C12.5849 7.29238 12.5256 7.29405 12.4923 7.28867C12.4073 7.27422 12.2083 7.30923 12.0657 7.36647C11.7704 7.48558 11.4093 7.80216 11.2429 8.08837C11.003 8.50053 10.9643 8.9751 11.1359 9.41839C11.2687 9.76183 11.5921 10.1364 11.8872 10.289C12.3836 10.5446 12.8558 10.5706 13.2928 10.3683C13.7802 10.1425 14.0739 9.71733 14.177 9.08867C14.2308 8.75968 14.1792 8.437 14.0169 8.09747C13.812 7.66178 13.5167 7.38468 13.151 7.28851C13.0386 7.25868 12.741 7.25498 12.625 7.28314L12.6251 7.2833ZM12.4134 7.59839C12.4134 7.68379 12.4034 7.72269 12.3725 7.76696L12.3299 7.82642L12.317 7.75233C12.3095 7.7112 12.3041 7.63563 12.3041 7.58135C12.3027 7.49595 12.3063 7.48521 12.345 7.4791C12.4073 7.46836 12.4134 7.47762 12.4134 7.59821L12.4134 7.59839ZM12.5295 7.53356C12.5402 7.59839 12.5204 7.65026 12.4847 7.65026C12.4757 7.65026 12.4687 7.60747 12.4687 7.55801C12.4687 7.44427 12.5127 7.4276 12.5295 7.53356L12.5295 7.53356ZM12.6896 7.50225C12.6896 7.51133 12.666 7.53134 12.6341 7.54801C12.5787 7.57616 12.5787 7.57616 12.5787 7.52967C12.5787 7.49077 12.5886 7.48317 12.6341 7.48317C12.666 7.48317 12.6896 7.49077 12.6896 7.50225V7.50225ZM12.2433 7.68156C12.2706 7.86403 12.2706 7.912 12.2395 7.95238C12.2151 7.98443 12.2137 7.9822 12.2046 7.9433C12.1803 7.84179 12.1508 7.59302 12.1621 7.56708C12.1674 7.55189 12.1825 7.53892 12.1969 7.53892C12.2137 7.53892 12.228 7.58542 12.2432 7.68156L12.2433 7.68156ZM13.2194 7.61525C13.4912 7.75029 13.7104 8.03648 13.8509 8.43568C13.9131 8.61351 13.9168 8.63796 13.9168 8.85692C13.9153 9.12403 13.8743 9.30946 13.7672 9.53599C13.6511 9.78403 13.5001 9.95111 13.267 10.0922C13.1493 10.1625 13.0955 10.17 13.0643 10.1221C13.0529 10.1015 12.9573 10.0274 12.8519 9.95498C12.5733 9.76419 12.448 9.61544 12.3222 9.33315C12.2342 9.13328 12.2191 9.05158 12.2191 8.77301C12.2191 8.53034 12.2229 8.50219 12.2767 8.35566C12.3466 8.15505 12.4687 7.94739 12.5864 7.82141C12.6935 7.70619 12.9523 7.53911 13.0205 7.53911C13.0463 7.53911 13.1366 7.57264 13.2193 7.61543L13.2194 7.61525ZM12.0954 7.70064C12.1416 7.92497 12.1584 8.05853 12.147 8.10502C12.1401 8.13484 12.1273 8.14929 12.118 8.14003C12.0884 8.11021 12.0125 7.65249 12.0331 7.63172C12.0657 7.59819 12.0771 7.61116 12.0954 7.70044V7.70064ZM11.9518 7.73954C11.9518 7.75788 11.9776 7.87459 12.0073 7.99907C12.0642 8.23339 12.0757 8.33713 12.046 8.33713C12.0241 8.33713 11.8888 7.76935 11.9034 7.73436C11.9185 7.69471 11.952 7.69842 11.952 7.73973L11.9518 7.73954ZM11.8516 7.93034C11.8667 7.99517 11.9093 8.1517 11.9443 8.276C11.9922 8.43549 12.0073 8.51718 11.9974 8.55386L11.9845 8.60573L11.9662 8.55997C11.9222 8.44087 11.7674 7.91737 11.7674 7.88237C11.7674 7.84495 11.8022 7.7916 11.8168 7.80605C11.8221 7.80994 11.8372 7.86792 11.8516 7.93035V7.93034ZM11.7484 8.1517C11.7803 8.26618 11.8411 8.45234 11.8888 8.56682C11.9518 8.72335 11.9754 8.81171 11.9883 8.9323C11.9974 9.0201 12.0127 9.10865 12.0202 9.12773C12.0309 9.15903 12.0292 9.16052 11.9998 9.1368C11.9132 9.06438 11.6635 8.69871 11.5625 8.49126L11.4494 8.26453L11.492 8.18821C11.5163 8.14783 11.5399 8.11948 11.5458 8.12708C11.5526 8.13615 11.5806 8.20877 11.6081 8.29046C11.6733 8.48125 11.8813 8.91006 11.9314 8.95658C11.9648 8.98641 11.9611 8.96733 11.9034 8.82692C11.8024 8.57055 11.6248 8.10891 11.6119 8.06614C11.6012 8.02872 11.6674 7.9135 11.6878 7.93406C11.6917 7.93943 11.719 8.03631 11.7486 8.15153L11.7484 8.1517ZM11.5526 8.71559C11.6178 8.82692 11.7947 9.04902 11.9572 9.2239L12.09 9.36653L11.9776 9.26817C11.828 9.14221 11.4584 8.75469 11.391 8.65463L11.3372 8.57609L11.3683 8.47236L11.4017 8.36863L11.4533 8.5007C11.4813 8.57313 11.5253 8.66927 11.5528 8.71595L11.5526 8.71559ZM11.4236 8.84692C11.5472 9.00715 11.7803 9.23537 12.0126 9.41859C12.1698 9.54288 12.2061 9.58197 12.1416 9.54529C12.0627 9.50417 11.671 9.23168 11.5367 9.12554C11.3022 8.94011 11.3061 8.94548 11.3061 8.81952C11.3061 8.75839 11.3099 8.70819 11.3129 8.70819C11.3168 8.70819 11.3667 8.77154 11.4236 8.84712L11.4236 8.84692ZM11.791 9.42082C11.8745 9.47657 12.0165 9.56197 12.1044 9.61013C12.2487 9.68941 12.3375 9.76573 12.2859 9.76573C12.2616 9.76573 11.8942 9.60624 11.6363 9.48343L11.4238 9.38192L11.3745 9.2315C11.3464 9.14759 11.3243 9.07201 11.3243 9.06052C11.3243 9.04904 11.3942 9.10331 11.4815 9.18111C11.5681 9.25891 11.7061 9.36654 11.7912 9.42082H11.791ZM12.0954 9.77333C12.2009 9.81 12.3026 9.83964 12.3192 9.83964C12.3375 9.83964 12.374 9.86557 12.4058 9.89762L12.4589 9.95486L12.4134 9.94338C12.2562 9.91059 11.8078 9.79537 11.782 9.7824C11.7615 9.77092 11.7471 9.77333 11.7394 9.78389C11.7304 9.79907 11.7175 9.79685 11.6992 9.7824C11.6696 9.75647 11.5087 9.53585 11.5087 9.51918C11.5087 9.51529 11.5975 9.55419 11.7083 9.60995C11.8168 9.6633 11.9922 9.73813 12.0954 9.77333L12.0954 9.77333ZM12.046 9.94041C12.1105 9.95486 12.2472 9.98079 12.3482 9.99617C12.5167 10.0199 12.544 10.0312 12.6662 10.1106C12.7399 10.161 12.7968 10.2038 12.7929 10.2075C12.79 10.2114 12.6844 10.1907 12.5606 10.1625C12.3723 10.1221 12.3299 10.1168 12.2934 10.1366C12.254 10.1571 12.2319 10.1518 12.0939 10.0847C12.009 10.0419 11.898 9.96949 11.8487 9.92522L11.7576 9.83982L11.8426 9.87724C11.8888 9.8978 11.9815 9.9254 12.046 9.94059L12.046 9.94041Z"
    fill="#F06262" />
</svg>