<svg width="403" height="370" viewBox="0 0 403 370" fill="none" xmlns="http://www.w3.org/2000/svg">
  <path fill-rule="evenodd" clip-rule="evenodd"
    d="M128.234 0.290954C97.3795 0.856162 73.6173 3.85509 58.5498 9.13837C34.3456 17.6244 13.8605 42.5525 8.2498 70.364C6.97045 76.6096 5.4068 90.5721 4.60046 102.702C4.28256 107.861 3.72689 115.702 3.39865 120.105C1.23542 148.755 0 169.324 0 176.532C0 191.775 1.12168 215.072 2.24336 222.629C3.84063 233.549 6.96787 240.473 13.0982 246.562C15.75 249.163 16.621 250.319 17.4713 252.366C21.9916 263.49 27.8041 269.849 38.264 275.052C43.3969 277.653 46.9223 278.73 55.0221 280.211C68.7664 282.689 72.5734 282.939 103.508 282.859C124.584 282.812 131.121 282.939 131.235 283.29C131.315 283.574 131.961 285.734 132.684 288.178C136.006 299.583 140.128 308.828 145.783 317.393C153.001 328.391 156.842 332.272 170.507 342.195C174.029 344.763 178.925 348.408 181.328 350.24C189.259 356.406 206.369 365.65 215.105 368.569C220.522 370.335 223.004 370.448 224.567 369.011C226.211 367.496 225.927 366.329 223.288 363.286C219.719 359.201 217.351 355.683 215.232 351.123C211.301 342.841 210.303 339.762 209.181 332.994C207.062 319.948 206.576 305.986 207.98 297.738C208.783 293.177 210.541 287.215 211.991 284.374L212.704 282.936L222.086 282.448C227.209 282.164 234.505 281.973 238.234 281.973C244.522 281.973 260.59 281.328 279.106 280.366C289.689 279.811 302.597 278.487 308.771 277.333C311.65 276.812 318.38 275.568 323.795 274.572C340.827 271.402 355.047 267.487 362.866 263.799C370.118 260.359 374.447 257.282 382.265 249.836C391.874 240.749 394.65 235.67 397.289 222.544C398.41 216.977 400.054 200.049 400.734 187.127C400.972 182.85 401.46 175.642 401.775 171.115C403.135 152.231 403.419 125.018 402.341 113.896C402.137 111.575 401.651 106.574 401.334 102.729C400.607 94.7638 398.206 81.4005 395.883 72.3132C393.957 64.6762 390.07 54.8668 387.191 50.306C381.582 41.3456 377.491 37.8585 363.666 30.1415C360.13 28.1852 356.651 26.1025 355.928 25.5372C349.754 20.6155 340.982 16.0086 332.608 13.2496C323.066 10.1706 316.178 8.9266 298.547 7.25167C292.688 6.68646 284.755 5.84768 280.915 5.40633C244.882 1.28727 234.583 0.722112 182.132 0.280766C161.407 0.0872009 144.184 -0.0366801 143.855 0.00977365C143.537 0.00977365 136.489 0.167205 128.229 0.280766L128.234 0.290954ZM202.569 10.656C235.191 11.3012 246.059 11.9464 272.3 14.8654C281.115 15.828 292.379 17.0255 297.354 17.4669C318.193 19.3793 326.849 21.3485 337.783 26.5079C350.011 32.3122 355.938 38.7176 359.822 50.4404C361.262 54.7633 365.113 70.367 368.276 84.5C370.804 95.8145 374.246 117.914 375.733 131.91C376.57 140.115 376.978 171.41 376.332 180.939C375.81 189.017 375.13 193.497 373.285 200.739C369.364 216.387 362.996 228.076 355.053 234.164C346.238 240.918 334.579 245.445 316.947 248.929C301.923 251.882 287.734 253.129 256.675 254.169C228.664 255.085 217.843 255.764 204.778 257.405C193.718 258.773 188.665 260.528 186.138 263.854C183.975 266.693 181.979 272.771 181.731 277.138C181.698 278.371 181.256 280.816 180.814 282.581C179.216 288.907 178.932 291.779 178.966 302.789C179.012 314.873 179.532 320.192 181.731 330.636C182.535 334.358 183.295 337.922 183.419 338.601C183.657 339.721 183.657 339.767 182.853 339.2C182.411 338.882 179.532 336.926 176.485 334.843C163.386 325.96 155.488 316.955 148.633 302.99C145.948 297.547 142.787 288.54 139.262 276.377C135.489 263.33 130.322 257.085 121.902 255.363C118.061 254.56 110.923 254.039 100.781 253.755C86.5609 253.404 70.7305 252.759 64.918 252.364C48.9301 251.198 33.3378 247.917 25.2817 244.036C23.0823 242.996 21.4747 241.84 19.4355 239.793C11.8657 232.19 10.2579 222.584 10.2241 184.325C10.2241 165.645 10.2577 165.044 11.7413 147.915C13.827 123.621 14.7445 112.34 15.4242 101.896C16.794 81.3707 18.2672 70.6442 20.8414 62.9147C22.8005 57.0768 27.5716 47.7081 31.1743 42.7066C38.3465 32.6256 49.6896 23.3475 59.5137 19.4196C71.3326 14.7018 96.023 11.215 122.028 10.5365C133.372 10.2191 185.427 10.2991 202.57 10.6501L202.569 10.656ZM369.647 40.8341C372.684 43.1542 377.863 48.3132 378.62 49.7614C378.938 50.3163 377.26 49.3536 373.725 47.0335C368.558 43.5596 368.354 43.3558 367.357 41.0717C366.801 39.7581 366.439 38.6741 366.597 38.6741C366.71 38.6741 368.08 39.6367 369.644 40.8343L369.647 40.8341ZM374.451 51.4825C376.333 52.6026 378.781 53.8802 379.856 54.3576C381.985 55.2068 382.146 55.4777 383.947 60.6033L384.673 62.686L379.179 58.5231C371.893 52.9665 371.213 52.3213 370.885 50.7599C370.727 50.0811 370.727 49.4823 370.805 49.4823C370.929 49.4823 372.573 50.3985 374.454 51.4851L374.451 51.4825ZM382.745 64.2446L385.792 65.886L387.038 70.5703C387.751 73.1279 388.24 75.288 388.193 75.3345C388.16 75.368 385.508 73.3318 382.301 70.8077C379.093 68.2836 376.012 65.966 375.41 65.6485C374.811 65.3646 374.242 64.7659 374.131 64.4046C373.893 63.5219 372.681 58.3292 372.681 58.0453C372.681 57.9653 374.245 58.928 376.217 60.2055C378.132 61.5191 381.065 63.3283 382.743 64.2445L382.745 64.2446ZM380.706 74.0104C383.029 75.5718 385.872 77.2468 387.041 77.732C388.162 78.2533 389.113 78.8082 389.113 78.9656C389.113 79.1695 389.555 81.8175 390.077 84.8939C390.599 87.9729 391.008 90.5408 390.961 90.5408C390.961 90.5744 387.8 87.5754 384.027 83.8876L377.137 77.2112L376.377 73.9645C375.889 71.8817 375.778 70.8081 376.049 70.9655C376.297 71.0894 378.383 72.4934 380.706 74.0083L380.706 74.0104ZM383.549 89.0591C385.146 90.4502 387.56 92.3394 388.876 93.1782C390.235 94.0608 391.447 94.9435 391.561 95.2145C391.719 95.4984 391.969 97.4211 392.127 99.5038L392.445 103.305L389.884 100.908C388.478 99.5839 385.635 96.7449 383.549 94.6157C380.217 91.2219 379.776 90.5431 379.458 88.8114C379.253 87.7816 379.016 86.4576 378.902 85.9363C378.654 85.0072 378.654 85.0072 379.615 85.7324C380.181 86.1737 381.939 87.6551 383.546 89.0591H383.549ZM385.916 101.821C387.989 103.463 390.359 105.181 391.197 105.623C392.398 106.348 392.727 106.743 392.727 107.705C392.727 108.34 392.84 109.902 392.998 111.099L393.246 113.306L387.671 107.896C384.624 104.944 381.983 102.34 381.859 102.102C381.701 101.899 381.497 100.936 381.337 99.9758C381.019 97.9395 380.737 97.8156 385.914 101.821L385.916 101.821ZM386.472 111.664C388.32 113.068 390.641 114.707 391.685 115.308L393.52 116.385V119.949C393.52 122.992 393.44 123.513 392.964 123.229C392.646 123.025 390.403 121.146 387.989 119.03L383.582 115.148L383.345 112.818C383.187 111.54 382.983 110.18 382.869 109.785C382.745 109.424 382.745 109.107 382.869 109.107C383.027 109.107 384.627 110.26 386.472 111.664ZM390.199 125.345C391.525 126.274 392.84 127.064 393.088 127.155C393.406 127.268 393.52 128.592 393.44 131.227L393.326 135.109L389.439 132.11C387.309 130.468 385.474 128.987 385.394 128.83C385.27 128.672 385.066 126.907 384.906 124.914L384.588 121.35L386.152 122.504C387.035 123.183 388.837 124.473 390.196 125.343L390.199 125.345ZM391.003 135.834L393.517 137.315V141.796C393.517 144.273 393.437 146.323 393.324 146.323C393.2 146.323 391.636 145.156 389.801 143.721L386.423 141.153L386.152 138.675C386.027 137.318 385.914 135.395 385.914 134.433V132.634L387.229 133.47C387.909 133.958 389.63 134.998 391.003 135.834ZM389.995 147.272L393.326 149.432L393.202 153.324C393.045 157.76 393.282 157.681 389.281 154.999L386.71 153.324V150.121C386.71 148.356 386.596 146.511 386.472 145.992C386.314 145.517 386.314 145.119 386.426 145.119C386.596 145.119 388.193 146.069 389.995 147.269V147.272ZM390.075 159.526L392.727 160.726L392.68 163.441C392.646 164.923 392.522 167.289 392.362 168.724L392.124 171.326L390.755 168.928C389.995 167.604 388.759 165.648 388.036 164.528C386.948 162.886 386.71 162.164 386.71 160.442C386.71 159.276 386.867 158.326 387.072 158.326C387.229 158.326 388.589 158.881 390.075 159.526ZM390.233 175.05C391.92 177.132 391.967 177.29 391.716 179.169L391.445 181.125L389.077 177.969C386.868 175.003 386.71 174.652 386.754 172.65V170.523L387.638 171.689C388.113 172.324 389.281 173.85 390.233 175.05ZM391.478 186.535C391.398 190.654 391.16 190.698 388.555 187.056C387.229 185.257 386.154 183.492 386.154 183.174C386.154 182.813 386.188 181.93 386.234 181.218L386.314 179.85L388.92 182.214C391.447 184.501 391.481 184.578 391.481 186.537L391.478 186.535ZM390.799 196.933C390.641 200.102 390.233 200.858 389.519 199.501C389.235 198.979 388.113 197.418 387.072 196.06C385.066 193.536 384.748 192.339 385.35 190.019C385.588 189.17 385.792 189.25 388.273 191.614L390.925 194.138L390.801 196.933L390.799 196.933ZM389.031 202.342C390.276 203.258 390.323 203.462 390.039 204.82L389.71 206.301L387.116 202.657C383.58 197.702 383.466 197.452 385.746 199.534C386.834 200.541 388.317 201.774 389.031 202.34L389.031 202.342ZM388.237 208.668L389.597 209.945L389.312 212.944L389.028 215.987L385.265 212.062C383.226 209.902 381.538 207.899 381.492 207.625C381.492 207.297 381.776 206.064 382.138 204.82L382.818 202.58L384.87 204.944C385.991 206.257 387.511 207.943 388.235 208.665L388.237 208.668ZM383.185 214.191C384.591 215.425 386.392 216.906 387.196 217.507L388.713 218.547L388.475 220.868C387.875 226.277 388.191 226.231 383.908 221.115C381.823 218.591 379.851 216.227 379.535 215.832C379.093 215.267 379.06 214.826 379.455 213.546C379.693 212.663 380.101 211.951 380.292 211.951C380.497 211.951 381.822 212.947 383.182 214.191L383.185 214.191ZM385.066 226.672C387.309 228.234 387.309 228.2 385.792 231.674L384.909 233.597L380.897 228.719C375.289 221.875 375.651 222.507 376.455 220.865L377.134 219.428L380.057 222.346C381.668 223.954 383.911 225.864 385.066 226.669L385.066 226.672ZM378.494 231.514C382.743 235.633 383.141 236.154 382.709 236.923C382.143 237.953 380.295 240.113 380.137 239.922C380.104 239.842 379.615 239.12 379.06 238.361C378.538 237.602 376.692 235.282 374.968 233.202L371.807 229.48L372.521 228.112C372.929 227.354 373.405 226.799 373.562 226.835C373.686 226.915 375.93 228.995 378.491 231.519L378.494 231.514ZM373.973 237.442C376.374 239.796 378.302 241.922 378.302 242.16C378.302 242.397 377.703 243.2 376.977 243.879L375.617 245.203L374.087 243.28C373.25 242.24 371.368 240.033 369.962 238.472C368.352 236.639 367.515 235.393 367.719 235.078C368.161 234.275 369.158 233.155 369.44 233.155C369.564 233.155 371.603 235.078 373.973 237.445L373.973 237.442ZM368.037 241.073C369.6 242.555 371.606 244.354 372.49 245.079L374.087 246.356L372.852 247.6L371.606 248.8L367.719 244.003C364.149 239.589 363.514 238.356 364.749 238.356C364.987 238.356 366.47 239.589 368.034 241.071L368.037 241.073ZM365.475 246.075L369.644 250.398L368.442 251.361C367.796 251.926 367.073 252.323 366.832 252.243C366.594 252.21 364.633 250.161 362.503 247.763L358.662 243.363L359.784 242.48C360.384 241.959 360.986 241.597 361.1 241.677C361.224 241.724 363.185 243.727 365.473 246.078L365.475 246.075ZM359.663 250.204C363.232 253.565 363.945 254.447 363.47 254.765C361.748 255.918 361.226 255.727 356.251 251.766C353.566 249.639 351.493 247.807 351.604 247.68C352.25 247.035 354.132 245.995 354.651 245.995C354.969 245.995 357.257 247.884 359.66 250.204L359.663 250.204ZM349.364 252.558C350.974 253.758 353.375 255.32 354.654 256.042C355.98 256.767 357.055 257.48 357.055 257.65C357.055 257.888 352.93 259.563 352.284 259.563C352.126 259.563 351.809 259.168 351.571 258.646C351.323 258.159 349.759 256.202 348.082 254.279C346.394 252.367 345.034 250.682 345.034 250.568C345.034 249.843 346.836 250.648 349.364 252.561L349.364 252.558ZM345.195 256.517L349.286 260.727L346.919 261.361C345.639 261.723 344.518 261.96 344.437 261.883C343.711 261.17 338.227 253.758 338.227 253.521C338.227 253.237 339.995 252.481 340.788 252.401C340.992 252.367 342.951 254.246 345.195 256.52L345.195 256.517ZM28.692 255.203C29.1676 255.361 30.4935 257.16 31.7754 259.323C33.1452 261.687 33.7474 263 33.3054 262.807C32.2174 262.208 27.3687 256.922 26.6526 255.521C26.0065 254.277 26.0065 254.277 26.924 254.559C27.4461 254.716 28.2164 255 28.692 255.203ZM334.893 255.838C335.335 256.484 336.945 258.329 338.429 259.968C341.385 263.248 341.385 263 337.94 263.689C336.738 263.927 336.534 263.769 333.453 260.125C331.652 258.042 330.212 256.166 330.212 256.006C330.212 255.678 332.332 254.876 333.453 254.796C333.771 254.762 334.417 255.237 334.893 255.836L334.893 255.838ZM36.1487 257.162C37.304 257.48 37.7124 257.888 38.0742 258.928C38.312 259.64 39.5474 262.051 40.8733 264.291C42.1991 266.531 43.2743 268.443 43.2743 268.567C43.2743 268.691 42.2328 268.25 40.9508 267.605C38.6273 266.451 38.5937 266.404 36.34 261.767C35.1046 259.199 34.063 257.036 34.063 256.925C34.063 256.688 34.5386 256.721 36.1487 257.162ZM329.778 260.93C333.301 264.448 333.505 264.732 332.578 264.926C329.179 265.728 327.977 265.888 327.773 265.651C327.649 265.493 326.413 264.009 324.963 262.371C320.963 257.73 321.123 258.048 322.686 257.606C325.486 256.804 325.814 256.961 329.781 260.933L329.778 260.93ZM44.5582 259.245C44.8864 259.529 45.7703 260.76 46.4837 261.96C47.21 263.171 49.0553 265.852 50.6189 267.888C52.1361 269.925 53.3379 271.646 53.2603 271.724C53.0226 271.971 47.1634 270.41 46.8481 270.049C46.6905 269.891 45.4886 267.287 44.1628 264.244L41.7617 258.768H42.8395C43.4391 258.768 44.2093 259.005 44.5608 259.242L44.5582 259.245ZM324.168 266.531C324.077 266.644 322.798 266.848 321.402 266.972L318.797 267.243L315.67 263.485L312.576 259.764L314.662 259.322L316.791 258.881L320.598 262.603C322.684 264.639 324.281 266.404 324.168 266.528L324.168 266.531ZM54.4299 261.088C55.5076 262.445 61.7158 272.89 61.5577 273.048C61.4001 273.205 56.8668 272.493 56.7091 272.289C56.505 272.051 52.1423 264.401 50.9404 262.242L49.6611 259.921L51.7804 260.205C53.0261 260.319 54.1039 260.727 54.4321 261.088L54.4299 261.088ZM310.776 264.244C312.624 266.2 313.984 267.888 313.87 268.046C313.712 268.169 312.578 268.407 311.342 268.567L309.132 268.851L306.253 265.049C303.206 260.964 303.206 260.93 306.096 260.806C307.251 260.76 307.817 261.201 310.776 264.246V264.244ZM62.7268 264.969C63.8485 266.925 65.5259 269.687 66.4899 271.091C67.4074 272.495 68.0872 273.729 68.0071 273.852C67.5754 274.247 64.5283 273.491 64.5283 272.97C64.5283 272.686 63.2489 269.927 61.7189 266.768C59.1576 261.642 58.9999 261.121 59.7934 261.245C60.4395 261.325 61.2433 262.365 62.7294 264.967L62.7268 264.969ZM68.2914 262.649C68.9711 263.849 75.0679 271.77 76.5076 273.331C77.438 274.327 77.6758 274.813 77.2339 274.609C76.8256 274.485 75.4325 274.371 74.1066 274.371H71.7392L69.3821 269.641C68.0562 267.083 66.4926 264.164 65.893 263.201L64.8049 261.436L66.3686 261.764C67.2525 261.877 68.0899 262.319 68.2941 262.646L68.2914 262.649ZM301.771 265.364C303.606 267.491 304.979 269.29 304.855 269.403C304.731 269.527 303.937 269.731 303.087 269.844L301.523 270.048L298.644 266.2C297.034 264.118 295.754 262.285 295.754 262.205C295.754 262.048 296.843 261.764 298.044 261.606C298.282 261.606 299.96 263.281 301.771 265.364ZM75.543 262.365C76.5845 262.365 76.9128 262.649 77.9104 264.481C78.5901 265.601 80.2339 268.329 81.6373 270.49C83.0433 272.65 84.1649 274.485 84.1649 274.575C84.1649 274.689 82.9192 274.769 81.3995 274.769C78.8718 274.769 78.634 274.689 78.8279 274.01C78.9519 273.489 77.9104 271.372 75.7911 267.844C73.9793 264.925 72.5397 262.368 72.5397 262.164C72.5397 262.006 72.9351 261.96 73.4572 262.13C73.9457 262.244 74.9071 262.368 75.5429 262.368L75.543 262.365ZM83.6792 262.603C84.2788 262.76 84.9585 263.599 85.6512 264.923C86.2068 266.043 87.6464 268.611 88.812 270.647C90.0138 272.65 90.9753 274.405 90.9753 274.529C90.9753 274.653 90.1715 274.766 89.2074 274.766C87.6903 274.766 87.3724 274.609 87.1217 273.85C86.9641 273.362 85.6046 270.681 84.1185 267.888C82.6013 265.127 81.353 262.729 81.353 262.605C81.353 262.288 82.4747 262.321 83.6765 262.605L83.6792 262.603ZM294.074 266.247C297.553 270.366 297.597 270.647 294.912 270.727C294.028 270.773 293.348 270.128 290.981 266.969C289.383 264.843 288.215 262.964 288.339 262.76C288.453 262.522 289.099 262.365 289.699 262.365C290.616 262.365 291.387 263.044 294.072 266.247L294.074 266.247ZM91.2086 263.077C91.4929 263.248 93.1677 265.441 94.982 267.965C96.7835 270.49 98.6185 272.967 99.0605 273.409C99.8307 274.245 99.8307 274.245 98.9028 274.529C98.3807 274.653 97.0548 274.766 95.9332 274.766H93.894L91.5705 269.447C90.2911 266.561 89.0893 263.96 88.9291 263.723C88.7249 263.485 88.681 263.168 88.8386 263.044C89.2005 262.682 90.6504 262.682 91.206 263.09V263.08L91.2086 263.077ZM287.531 267.604L290.534 271.122L288.415 271.37C287.247 271.527 285.887 271.563 285.411 271.483C284.889 271.403 283.439 269.842 281.558 267.364L278.555 263.359L280.832 263.165C283.564 262.917 283.483 262.881 287.528 267.602L287.531 267.604ZM102.423 267.049C103.907 269.21 105.631 271.61 106.277 272.412C107.603 274.167 107.355 274.369 103.876 274.369L101.586 274.322L100.307 271.641C99.627 270.159 98.3012 267.645 97.3836 266.04L95.6959 263.165H99.7407L102.426 267.047L102.423 267.049ZM109.924 267.648C114.367 274.449 114.253 273.961 111.645 273.961H109.402L108.36 271.845C107.761 270.725 106.512 268.404 105.551 266.719C104.587 265.044 103.793 263.563 103.793 263.439C103.793 263.281 104.507 263.168 105.357 263.168C106.954 263.168 106.954 263.201 109.924 267.648ZM115.736 264.368C115.817 264.605 117.13 266.845 118.66 269.37C120.177 271.894 121.425 274.054 121.425 274.167C121.425 274.291 120.384 274.371 119.135 274.291L116.812 274.167L113.922 268.804L111.043 263.441L113.32 263.689C114.566 263.803 115.643 264.12 115.734 264.368L115.736 264.368ZM274.51 263.88C274.51 264.037 276.028 265.883 277.876 267.966L281.274 271.767L278.589 272.085C276.265 272.412 275.87 272.368 275.505 271.767C275.301 271.372 273.908 269.481 272.422 267.524C270.892 265.601 269.69 263.88 269.69 263.767C269.69 263.643 270.778 263.563 272.091 263.563C273.417 263.563 274.505 263.72 274.505 263.88H274.51ZM258.523 267.049C259.882 268.768 261.64 270.851 262.443 271.643C263.803 273.125 263.849 273.171 262.885 273.171C262.33 273.171 260.96 273.285 259.838 273.409L257.799 273.646L254.752 269.132C251.431 264.21 251.387 263.96 254.356 263.96C255.954 263.96 256.114 264.084 258.525 267.049L258.523 267.049ZM267.372 268.249L271.259 272.572L268.778 272.766C267.419 272.89 266.217 272.846 266.173 272.686C266.093 272.492 264.893 270.683 263.568 268.647C262.208 266.611 260.926 264.721 260.769 264.448C260.52 264.087 260.849 263.96 261.97 263.96C263.454 263.96 263.728 264.208 267.375 268.249H267.372ZM250.705 268.771C252.664 271.205 254.354 273.365 254.388 273.569C254.468 273.806 253.504 273.964 251.987 273.964L249.459 273.93L246.978 271.045C245.618 269.483 243.77 267.323 242.853 266.247L241.165 264.368H247.182L250.705 268.768V268.771ZM123.782 266.327C125.108 267.367 127.398 270.967 128.189 273.251C128.597 274.371 128.551 274.371 126.909 274.371H125.232L122.704 269.529C120.177 264.688 120.177 264.688 121.298 264.925C121.898 265.082 123.02 265.728 123.779 266.329L123.782 266.327ZM241.131 269.246C243.612 271.723 245.651 273.886 245.651 274.054C245.651 274.247 244.496 274.371 243.046 274.371H240.485L239.001 272.051C238.197 270.807 236.758 268.724 235.794 267.491C234.83 266.247 234.036 265.127 234.036 265C234.036 264.887 234.636 264.763 235.315 264.763C236.437 264.763 237.241 265.408 241.128 269.243L241.131 269.246ZM229.426 266.009C229.583 266.484 231.147 268.521 232.871 270.603L236.078 274.371H234.153C232.271 274.371 232.147 274.291 230.152 271.847C228.984 270.49 227.216 268.407 226.187 267.243L224.295 265.16H226.743C228.862 265.16 229.224 265.284 229.428 266.009H229.426ZM224.179 270.162L228.904 274.766H224.213L220.734 270.41C218.762 268.046 217.198 265.963 217.198 265.805C217.198 265.682 217.687 265.568 218.32 265.568C219.17 265.568 220.45 266.608 224.179 270.162ZM216.519 270.366L220.406 274.733L219.046 274.97C218.32 275.128 217.358 275.174 216.927 275.084C216.043 274.926 208.305 266.802 208.62 266.281C208.744 266.123 209.662 265.963 210.706 266.01C212.598 266.01 212.598 266.009 216.519 270.366ZM206.343 269.29C207.783 270.647 210.026 272.683 211.305 273.77L213.595 275.773L210.91 275.806C208.225 275.853 208.191 275.853 207.147 274.402C206.547 273.61 205.061 271.641 203.815 270.079C202.57 268.484 201.572 267.08 201.572 266.967C201.572 266.843 202.048 266.763 202.65 266.763C203.42 266.763 204.462 267.488 206.343 269.287L206.343 269.29ZM202.412 273.77L205.506 276.973L204.418 279.133L203.296 281.249L202.412 280.129C201.937 279.494 199.251 276.612 196.519 273.69C193.483 270.443 191.715 268.327 191.999 268.123C192.237 267.999 193.359 267.728 194.527 267.568C196.566 267.284 196.566 267.284 197.972 268.926C198.732 269.842 200.737 272.005 202.415 273.767L202.412 273.77ZM201.29 283.094L202.412 283.897L201.495 286.93C201.019 288.615 200.497 289.972 200.373 289.972C200.249 289.972 199.931 289.577 199.613 289.056C199.285 288.568 196.928 285.255 194.322 281.734C190.391 276.405 189.551 275.001 189.551 273.881C189.551 273.122 189.632 272.409 189.756 272.286C189.869 272.162 192.283 274.368 195.082 277.163C197.892 279.969 200.691 282.606 201.293 283.092L201.29 283.094ZM193.881 286.455C195.478 288.377 197.53 290.54 198.367 291.296L199.978 292.654L199.412 295.539C199.094 297.134 198.765 298.492 198.685 298.572C198.605 298.662 196.17 295.493 193.281 291.534L187.954 284.326L188.43 282.256L188.872 280.173L189.913 281.564C190.469 282.333 192.281 284.53 193.878 286.452L193.881 286.455ZM187.954 289.497C187.954 290.46 196.961 300.384 197.845 300.384C198.241 300.384 198.367 301.424 198.334 304.66V308.983L197.45 307.817C192.397 301.016 189.949 297.86 188.477 296.095L186.709 294.012L186.993 291.614C187.107 290.257 187.435 289.17 187.593 289.17C187.787 289.17 187.954 289.34 187.954 289.497ZM193.485 306.696C195.842 309.06 196.646 309.628 197.406 309.458C198.37 309.3 198.37 309.344 198.37 312.547C198.37 314.302 198.494 316.79 198.654 317.99L198.892 320.186L197.375 318.184C195.654 315.943 192.526 312.266 189.081 308.43L186.747 305.862V299.379L188.639 301.586C189.637 302.786 191.847 305.104 193.488 306.701L193.485 306.696ZM197.814 321.033C198.812 321.27 198.936 321.631 199.378 326.148L199.572 328.512L196.083 325.265C194.124 323.51 191.516 320.989 190.237 319.665C188.073 317.468 187.869 317.141 187.551 314.743C187.357 313.352 187.156 311.868 187.156 311.463C187.156 310.988 188.877 312.503 192.004 315.752C194.69 318.514 197.295 320.911 197.817 321.035L197.814 321.033ZM193.361 326.352C195.571 328.117 197.928 329.792 198.608 330.03C199.81 330.471 199.854 330.628 200.296 333.911C200.533 335.8 200.691 337.395 200.613 337.475C200.533 337.555 198.052 335.279 195.083 332.394C190.472 327.993 189.598 326.951 189.394 325.707C189.236 324.87 188.998 323.874 188.872 323.433C188.588 322.504 188.554 322.47 193.359 326.352L193.361 326.352ZM199.696 340.361C200.931 341.277 201.973 342.239 201.973 342.521C201.973 342.792 202.495 344.036 203.141 345.282C204.105 347.161 204.183 347.522 203.617 347.195C202.743 346.764 193.566 340.123 192.842 339.431C192.4 338.99 191.244 335.075 191.154 333.875C191.154 333.671 192.56 334.677 194.281 336.071C195.969 337.519 198.417 339.398 199.699 340.361L199.696 340.361ZM197.248 346.121C199.096 347.321 201.939 349.04 203.661 349.969C206.222 351.36 207.072 352.129 208.874 354.53C210.029 356.091 211.117 357.608 211.311 357.89C211.673 358.488 206.79 356.248 201.34 353.329C198.293 351.722 196.967 350.805 196.173 349.608C195.574 348.725 194.928 348 194.723 348C194.566 348 194.201 347.321 194.01 346.485C193.522 344.877 193.444 344.007 193.762 344.007C193.842 344.007 195.45 344.957 197.251 346.124L197.248 346.121Z"
    fill="#F06262" />
  <path fill-rule="evenodd" clip-rule="evenodd"
    d="M266.148 105.47C263.855 106.27 261.431 107.729 258.655 109.928C251.738 115.423 247.043 124.433 247.043 132.269C247.043 135.822 247.76 138.703 249.585 142.398C251.278 145.774 253.137 148.35 255.679 150.692C258.021 152.868 260.114 154.104 263.255 155.21C266.525 156.363 271.243 156.586 276.22 155.869C285.033 154.587 289.925 151.386 293.009 144.918C296.962 136.681 296.844 124.259 292.786 117.942C290.528 114.447 283.894 108.413 280.915 107.19C279.422 106.556 274.044 105.354 272.728 105.354C272.162 105.354 271.586 105.214 271.506 105.071C271.189 104.555 268.13 104.789 266.154 105.471L266.148 105.47ZM269.184 108.612C268.124 109.528 268.067 109.566 267.985 108.989C267.83 108.272 268.607 107.647 269.607 107.647C270.266 107.647 270.241 107.707 269.184 108.612L269.184 108.612ZM266.831 109.988C266.948 110.648 266.748 111.305 266.088 112.424C265.606 113.247 265.112 113.941 265.006 113.941C264.866 113.941 264.772 113.047 264.772 111.964C264.772 110.248 264.866 109.928 265.431 109.566C266.374 108.872 266.691 108.989 266.831 109.988L266.831 109.988ZM275.818 109.788C276.994 110.188 278.654 110.848 279.453 111.248C282.972 113.024 288.489 118.484 290.088 121.8C293.464 128.694 291.947 141.082 287.053 146.66C284.911 149.096 282.018 150.435 277.1 151.272L274.502 151.731L273.02 150.932C270.866 149.778 267.348 146.12 266.126 143.744C264.232 140.168 263.773 137.944 263.773 132.249C263.773 126.697 264.032 124.838 265.515 120.284C266.808 116.32 268.867 112.424 270.644 110.565C272.36 108.812 272.725 108.766 275.821 109.789L275.818 109.788ZM263.912 111.647C263.912 111.93 264.112 112.79 264.346 113.507C264.746 114.623 264.746 114.883 264.369 115.566L263.969 116.342L263.652 115.226C263.452 114.603 263.23 113.39 263.147 112.567C263.007 111.308 263.053 111.085 263.452 111.085C263.712 111.085 263.912 111.308 263.912 111.65V111.647ZM262.313 113.906C262.547 114.683 262.913 115.683 263.173 116.165C263.49 116.765 263.55 117.259 263.407 117.682C263.253 118.021 263.09 118.199 262.973 118.059C262.55 117.316 261.336 113.801 261.336 113.189C261.336 112.047 261.853 112.424 262.313 113.906L262.313 113.906ZM261.491 117.025C262.396 119.235 262.513 119.801 262.313 120.577C262.053 121.46 261.996 121.377 260.714 118.084C259.737 115.543 259.454 114.566 259.677 114.283C260.111 113.801 260.231 113.943 261.488 117.025H261.491ZM260.174 119.235C261.573 122.199 261.69 122.599 261.491 123.836C261.396 124.553 261.196 125.035 261.056 124.918C260.939 124.778 260.114 122.859 259.232 120.695C257.995 117.659 257.715 116.625 257.938 116.342C258.115 116.108 258.338 115.943 258.455 115.943C258.538 115.943 259.314 117.425 260.171 119.235L260.174 119.235ZM258.775 123.036C260.434 126.495 260.894 127.731 260.774 128.354C260.657 129.07 260.314 128.494 258.255 124.153C256.136 119.658 255.736 118.481 256.419 118.518C256.536 118.518 257.595 120.543 258.772 123.036H258.775ZM256.881 124.895C257.918 126.894 259.2 129.248 259.774 130.096C260.634 131.449 260.774 131.932 260.774 133.331V134.968L257.681 129.191C255.999 125.978 254.48 123.379 254.305 123.379C253.163 123.379 254.045 125.955 256.764 130.556C257.881 132.449 259.257 134.508 259.834 135.108C260.577 135.967 260.917 136.684 261.233 138.143C261.433 139.203 261.573 140.12 261.55 140.168C261.396 140.285 256.561 133.674 254.34 130.31L252.363 127.357L252.74 126.015C253.106 124.522 254.705 120.943 254.882 121.12C254.965 121.18 255.859 122.897 256.881 124.896L256.881 124.895ZM256.342 135.285C257.424 136.684 259.26 138.826 260.4 140.025C261.553 141.225 262.493 142.401 262.493 142.601C262.493 142.801 262.833 143.684 263.235 144.517C263.918 146 263.658 145.777 257.778 139.823L251.624 133.588V131.789C251.624 128.931 251.824 128.848 253.166 130.93C253.849 131.929 255.285 133.905 256.342 135.282L256.342 135.285ZM263.635 146.696C265.754 148.378 267.094 149.755 267.094 150.177C267.094 150.294 267.388 150.577 267.728 150.777C268.55 151.294 268.093 151.131 264.269 149.555C262.459 148.838 260.774 148.318 260.517 148.412C260.14 148.518 259.434 147.978 257.975 146.436C256.859 145.26 255.739 143.883 255.456 143.378C254.997 142.461 255.022 142.461 256.798 143.883C260.457 146.753 266.574 150.554 266.988 150.177C267.094 150.037 262.976 146.919 257.176 142.741C254.14 140.599 253.623 140.116 253.106 138.905C251.647 135.481 251.847 135.564 256.802 140.399C259.378 142.918 262.459 145.751 263.636 146.693L263.635 146.696Z"
    fill="#F06262" />
  <path fill-rule="evenodd" clip-rule="evenodd"
    d="M122.322 110.822C121.617 110.928 120.158 111.327 119.041 111.727C117.947 112.138 115.982 112.644 114.689 112.881C111.913 113.386 107.855 115.257 105.219 117.199C104.254 117.916 103.36 118.515 103.22 118.541C102.82 118.575 98.9849 123.153 97.6683 125.175C93.2676 132.046 92.6907 140.362 96.0691 148.432C100.187 158.162 108.541 163.713 119.07 163.713C122.788 163.713 125.104 163.196 128.199 161.677C137.012 157.359 143.729 144.913 143.129 134.101C142.707 126.973 139.954 121.231 134.517 115.995C130.341 112.02 126.163 110.244 122.328 110.818L122.322 110.822ZM120.757 115.622C120.58 115.762 119.721 116.456 118.841 117.199C117.065 118.598 116.948 118.541 117.347 116.565C117.487 115.859 117.687 115.659 118.441 115.565C120.183 115.342 121.017 115.365 120.76 115.625L120.757 115.622ZM116.322 117.776C116.322 119.024 116.182 119.68 115.888 119.94C115.523 120.257 115.466 120.057 115.466 118.318C115.466 117.224 115.548 116.225 115.665 116.142C116.148 115.659 116.325 116.082 116.325 117.778L116.322 117.776ZM114.606 117.716C114.606 118.398 114.723 119.398 114.866 119.975C115.031 120.774 114.971 121.14 114.606 121.657L114.089 122.316L113.949 121.2C113.349 117.119 113.372 116.516 114.209 116.516C114.492 116.516 114.609 116.856 114.609 117.716L114.606 117.716ZM129.993 118.198C134.571 121.999 137.287 126.691 138.263 132.503C138.686 134.961 138.723 135.704 138.403 138.137C137.286 146.856 132.451 154.549 126.192 157.585C125.098 158.102 123.639 158.679 122.956 158.822L121.719 159.082L119.295 156.046C116.002 151.928 114.6 148.975 113.423 143.835C112.681 140.422 112.564 139.483 112.707 137.541C113.366 129.493 116.742 123.059 122.554 118.881C124.353 117.565 126.095 116.857 127.531 116.822C128.048 116.799 128.848 117.256 129.99 118.199L129.993 118.198ZM112.604 118.138C112.627 118.598 112.804 119.915 113.004 121.091C113.31 122.796 113.31 123.373 113.027 123.916C112.604 124.775 112.45 124.575 111.91 121.891C111.205 118.455 111.311 117.516 112.404 117.396C112.51 117.362 112.604 117.713 112.604 118.138ZM110.311 119.455C110.311 119.832 110.688 121.454 111.145 123.09C111.767 125.289 111.91 126.209 111.685 126.609C111.545 126.891 111.368 127.091 111.308 127.031C111.048 126.771 109.189 119.255 109.331 119.055C109.648 118.538 110.308 118.821 110.308 119.455L110.311 119.455ZM108.595 121.114C108.772 121.737 109.337 123.69 109.888 125.432C110.654 127.985 110.771 128.75 110.548 129.35L110.254 130.093L109.714 128.845C109.397 128.151 108.692 126.069 108.115 124.21C107.255 121.397 107.138 120.774 107.455 120.397C108.032 119.68 108.255 119.858 108.598 121.114L108.595 121.114ZM106.913 124.632C107.372 126.009 108.195 128.234 108.737 129.55C109.774 132.043 110.114 134.045 109.337 133.02C108.632 132.103 105.114 122.796 105.279 122.35C105.619 121.491 106.056 122.116 106.915 124.632L106.913 124.632ZM104.819 125.869C105.196 126.891 106.373 129.527 107.455 131.729C108.515 133.905 109.314 135.681 109.197 135.681C108.914 135.681 103.74 124.918 103.74 124.353C103.74 123.436 104.2 124.058 104.822 125.869H104.819ZM108.255 136.021C108.889 136.964 109.171 137.681 109.171 138.446C109.171 139.505 109.137 139.483 107.572 136.824C106.678 135.33 105.079 132.329 103.997 130.13C102.48 127.131 102.081 126.072 102.338 125.778C102.56 125.495 103.16 126.472 104.996 130.047C106.279 132.589 107.738 135.282 108.255 136.024V136.021ZM102.303 130.15C103.763 133.268 106.456 137.644 108.115 139.597C108.892 140.479 109.457 141.479 109.574 142.116C109.691 142.715 109.751 143.232 109.691 143.258C109.631 143.318 108.538 142.116 107.278 140.599C104.714 137.507 102.101 133.823 101.018 131.647C100.618 130.87 100.159 130.247 100.019 130.247C99.8788 130.247 100.019 129.67 100.359 128.954C100.698 128.237 101.018 127.671 101.075 127.671C101.098 127.671 101.641 128.788 102.298 130.153L102.303 130.15ZM102.68 136.938C103.257 137.704 105.199 139.914 106.998 141.856C109.374 144.337 110.374 145.631 110.517 146.291L110.694 147.233L108.717 145.574C107.635 144.657 104.882 142.173 102.623 140.022L98.528 136.141L98.6822 134.565C98.7879 133.671 98.9878 132.529 99.1877 132.012L99.5275 131.047L100.587 133.306C101.187 134.528 102.141 136.164 102.68 136.941L102.68 136.938ZM102.703 141.822C104.314 143.398 106.855 145.634 108.398 146.799C110.796 148.61 111.95 149.835 111.61 150.212C111.35 150.495 101.681 144.8 100.364 143.601C99.8473 143.118 99.6474 143.061 99.4818 143.378C99.1648 143.861 98.6479 141.779 98.4223 139.083L98.2452 136.964L99.0449 137.963C99.4789 138.503 101.104 140.257 102.703 141.822ZM107.481 149.492C110.856 151.151 112.35 152.034 112.576 152.528C112.776 152.893 112.87 153.27 112.776 153.327C112.716 153.41 110.494 152.611 107.881 151.585C105.256 150.526 102.88 149.749 102.598 149.832C102.221 149.949 101.881 149.572 101.187 148.29C100.704 147.347 100.104 146.054 99.8817 145.397L99.4476 144.232L101.107 145.691C102.249 146.713 104.105 147.833 107.484 149.492H107.481ZM109.034 153.387C110.457 153.87 112.153 154.387 112.81 154.552C113.752 154.787 114.209 155.129 114.892 156.129C115.386 156.846 115.691 157.422 115.609 157.422C115.526 157.422 113.832 156.906 111.833 156.246C109.857 155.612 107.998 155.152 107.658 155.246C106.916 155.412 104.859 153.753 103.506 151.871L102.563 150.554L104.517 151.531C105.565 152.071 107.635 152.896 109.035 153.39L109.034 153.387ZM115.129 158.305C116.234 158.482 117.188 158.765 117.188 158.905C117.188 159.282 115.234 158.928 113.175 158.245C112.316 157.962 111.916 157.762 112.316 157.845C112.716 157.928 113.975 158.128 115.129 158.305Z"
    fill="#F06262" />
  <path fill-rule="evenodd" clip-rule="evenodd"
    d="M195.686 112.284C195.064 112.424 194.144 112.45 193.627 112.367C192.311 112.144 189.227 112.684 187.016 113.566C182.439 115.403 176.841 120.283 174.263 124.696C170.544 131.05 169.945 138.366 172.603 145.2C174.662 150.495 179.674 156.269 184.25 158.622C191.943 162.563 199.262 162.963 206.036 159.844C213.59 156.363 218.142 149.809 219.741 140.117C220.575 135.045 219.775 130.07 217.26 124.836C214.084 118.119 209.506 113.847 203.838 112.364C202.096 111.905 197.484 111.847 195.685 112.282L195.686 112.284ZM192.405 117.142C192.405 118.458 192.251 119.058 191.771 119.741L191.112 120.657L190.912 119.515C190.795 118.881 190.712 117.716 190.712 116.879C190.689 115.562 190.746 115.397 191.346 115.303C192.311 115.137 192.405 115.28 192.405 117.139L192.405 117.142ZM194.204 116.142C194.37 117.142 194.064 117.941 193.51 117.941C193.37 117.941 193.262 117.282 193.262 116.519C193.262 114.766 193.944 114.509 194.204 116.142L194.204 116.142ZM196.686 115.66C196.686 115.8 196.32 116.108 195.826 116.365C194.967 116.799 194.967 116.799 194.967 116.082C194.967 115.483 195.121 115.365 195.826 115.365C196.32 115.365 196.686 115.483 196.686 115.66V115.66ZM189.769 118.424C190.192 121.237 190.192 121.977 189.709 122.599C189.332 123.093 189.309 123.059 189.17 122.459C188.793 120.894 188.336 117.059 188.51 116.659C188.593 116.425 188.827 116.225 189.05 116.225C189.309 116.225 189.532 116.942 189.766 118.424L189.769 118.424ZM204.899 117.402C209.111 119.484 212.509 123.896 214.686 130.05C215.651 132.792 215.708 133.169 215.708 136.544C215.685 140.662 215.049 143.521 213.389 147.013C211.59 150.837 209.248 153.413 205.636 155.589C203.811 156.671 202.978 156.788 202.495 156.048C202.318 155.731 200.836 154.589 199.202 153.473C194.884 150.531 192.942 148.238 190.992 143.886C189.627 140.805 189.393 139.545 189.393 135.25C189.393 131.509 189.453 131.075 190.287 128.816C191.369 125.723 193.262 122.522 195.087 120.58C196.747 118.804 200.759 116.228 201.816 116.228C202.215 116.228 203.615 116.745 204.897 117.404L204.899 117.402ZM187.476 118.718C188.193 122.177 188.453 124.236 188.276 124.952C188.17 125.412 187.97 125.635 187.827 125.492C187.367 125.032 186.191 117.976 186.511 117.656C187.016 117.139 187.193 117.339 187.476 118.715V118.718ZM185.251 119.318C185.251 119.601 185.651 121.4 186.111 123.319C186.993 126.931 187.17 128.531 186.711 128.531C186.371 128.531 184.275 119.777 184.5 119.238C184.734 118.627 185.254 118.684 185.254 119.321L185.251 119.318ZM183.698 122.259C183.932 123.259 184.592 125.672 185.134 127.588C185.877 130.047 186.111 131.306 185.957 131.872L185.757 132.672L185.474 131.966C184.791 130.13 182.393 122.059 182.393 121.52C182.393 120.943 182.932 120.12 183.158 120.343C183.241 120.403 183.475 121.297 183.698 122.259V122.259ZM182.098 125.672C182.592 127.437 183.535 130.307 184.275 132.072C185.251 134.485 185.617 135.847 185.817 137.706C185.957 139.06 186.194 140.425 186.311 140.719C186.476 141.202 186.451 141.224 185.994 140.859C184.652 139.742 180.782 134.105 179.217 130.907L177.464 127.411L178.123 126.235C178.5 125.612 178.866 125.175 178.957 125.292C179.063 125.432 179.497 126.552 179.922 127.811C180.933 130.753 184.158 137.363 184.934 138.081C185.451 138.54 185.394 138.246 184.5 136.081C182.935 132.129 180.182 125.012 179.982 124.353C179.817 123.776 180.842 122 181.159 122.317C181.219 122.399 181.642 123.893 182.101 125.669L182.098 125.672ZM179.063 134.365C180.074 136.082 182.815 139.506 185.334 142.202L187.393 144.401L185.651 142.884C183.332 140.942 177.603 134.968 176.558 133.425L175.724 132.215L176.207 130.615L176.724 129.016L177.523 131.052C177.957 132.169 178.64 133.651 179.065 134.371L179.063 134.365ZM177.064 136.39C178.98 138.86 182.592 142.378 186.193 145.203C188.629 147.119 189.192 147.722 188.192 147.156C186.97 146.522 180.899 142.322 178.817 140.685C175.182 137.827 175.242 137.909 175.242 135.968C175.242 135.025 175.302 134.251 175.347 134.251C175.407 134.251 176.181 135.228 177.064 136.393L177.064 136.39ZM182.758 145.237C184.052 146.097 186.254 147.414 187.616 148.156C189.852 149.378 191.228 150.555 190.429 150.555C190.052 150.555 184.357 148.096 180.36 146.203L177.067 144.638L176.302 142.319C175.867 141.025 175.525 139.86 175.525 139.683C175.525 139.506 176.607 140.343 177.961 141.542C179.303 142.741 181.442 144.401 182.761 145.237H182.758ZM187.476 150.672C189.112 151.237 190.689 151.694 190.946 151.694C191.228 151.694 191.794 152.094 192.288 152.588L193.11 153.471L192.405 153.294C189.969 152.788 183.018 151.012 182.618 150.812C182.301 150.635 182.078 150.672 181.958 150.835C181.818 151.069 181.618 151.035 181.336 150.812C180.876 150.412 178.383 147.011 178.383 146.754C178.383 146.694 179.759 147.294 181.476 148.153C183.158 148.976 185.876 150.129 187.476 150.672L187.476 150.672ZM186.711 153.248C187.71 153.471 189.829 153.87 191.394 154.107C194.007 154.473 194.43 154.647 196.323 155.872C197.465 156.649 198.348 157.309 198.288 157.366C198.242 157.426 196.606 157.106 194.687 156.672C191.768 156.049 191.111 155.967 190.546 156.272C189.935 156.589 189.592 156.506 187.453 155.473C186.136 154.813 184.417 153.696 183.652 153.014L182.241 151.697L183.558 152.274C184.274 152.591 185.711 153.017 186.71 153.251L186.711 153.248Z"
    fill="#F06262" />
</svg>